<?xml version="1.0" encoding="UTF-8"?>
<svg width="191px" height="77px" viewBox="0 0 191 77" version="1.1" xmlns="http://www.w3.org/2000/svg" xmlns:xlink="http://www.w3.org/1999/xlink">
    <!-- Generator: Sketch 52.6 (67491) - http://www.bohemiancoding.com/sketch -->
    <title>Group 3</title>
    <desc>Created with Sketch.</desc>
    <g id="Page-1" stroke="none" stroke-width="1" fill="none" fill-rule="evenodd">
        <g id="Artboard" transform="translate(-748.000000, -56.000000)">
            <g id="Group-3" transform="translate(742.000000, 55.000000)">
                <path d="M19.5859375,7.46289062 L20.0644531,7.46289062 C20.2285164,7.46289062 20.4928367,7.99608842 20.8574219,9.0625 C20.9667974,9.0625 21.0214844,9.11262971 21.0214844,9.21289062 L21.0214844,9.54101562 C20.2376263,10.2793006 19.7044285,10.6484375 19.421875,10.6484375 C18.5742145,10.3749986 18.1503906,10.1653653 18.1503906,10.0195312 C18.1777345,9.48176814 18.2825512,9.21289062 18.4648438,9.21289062 L18.3144531,8.41992188 L18.3144531,8.25585938 C18.587892,7.7272109 19.0117159,7.46289062 19.5859375,7.46289062 Z M9.37304688,13.6835938 L9.05859375,13.6835938 C8.67577934,13.1549453 8.35677211,12.890625 8.1015625,12.890625 L8.1015625,11.7695312 C8.1015625,11.5598948 8.26106611,11.4550781 8.58007812,11.4550781 L8.41601562,10.6484375 L8.41601562,10.1699219 L8.265625,10.1699219 L7.14453125,10.3339844 L6.50195312,9.54101562 L8.58007812,7.62695312 C8.47070258,6.89778281 8.41601562,6.30989807 8.41601562,5.86328125 L8.58007812,5.54882812 C8.37044166,5.20247223 8.265625,4.883465 8.265625,4.59179688 L8.265625,3.78515625 C9.4322975,2.82812021 10.015625,2.0852891 10.015625,1.55664062 L10.3300781,1.55664062 C10.6855487,1.55664062 10.9544262,1.50195367 11.1367188,1.39257812 L13.0507812,1.72070312 C13.0781251,1.50195203 13.1829418,1.39257812 13.3652344,1.39257812 L13.84375,1.39257812 C14.0533865,1.42903664 14.1582031,1.53841055 14.1582031,1.72070312 C15.7714924,1.50195203 16.9427047,1.39257812 17.671875,1.39257812 C17.8815115,1.50195367 18.0410151,1.55664062 18.1503906,1.55664062 L18.9433594,1.2421875 C20.009771,1.524741 20.5429688,1.73437432 20.5429688,1.87109375 C20.6523443,2.29948131 20.8118479,2.67317549 21.0214844,2.9921875 C21.0214844,3.31119951 20.8619808,3.7350234 20.5429688,4.26367188 C20.6979174,4.26367188 20.8574211,4.42317549 21.0214844,4.7421875 L21.0214844,5.0703125 C19.9824167,5.91797299 19.2395856,6.34179688 18.7929688,6.34179688 L18.6289062,6.02734375 L17.8359375,6.17773438 L17.0292969,6.02734375 C17.0292969,6.34635576 16.2317788,6.55598908 14.6367188,6.65625 C14.4908847,6.65625 14.1217478,6.44661668 13.5292969,6.02734375 L13.3652344,6.02734375 C13.1555979,7.04818219 13.0507812,7.63150969 13.0507812,7.77734375 C13.2604177,7.81380227 13.3652344,7.92317617 13.3652344,8.10546875 L13.3652344,10.1699219 C12.8274713,10.707685 12.2578155,11.24544 11.65625,11.7832031 C12.0117205,11.6555983 12.4218727,11.5462244 12.8867188,11.4550781 L13.2011719,11.4550781 C13.6569033,11.8743511 14.0852845,12.0839844 14.4863281,12.0839844 C14.4863281,11.9837235 14.6959614,11.7740901 15.1152344,11.4550781 L15.4433594,11.6054688 L15.59375,11.6054688 L17.0292969,10.4980469 L17.1933594,10.4980469 C17.3027349,10.4980469 17.3574219,10.5481766 17.3574219,10.6484375 L17.671875,10.4980469 L17.9863281,10.4980469 C18.1686207,10.4980469 18.3281243,10.8671838 18.4648438,11.6054688 L19.2714844,11.7695312 C19.2714844,11.5598948 19.430988,11.4550781 19.75,11.4550781 C20.4882849,11.9837266 20.8574219,12.6718708 20.8574219,13.5195312 L20.8574219,13.8476562 L21.5,13.5195312 L21.6640625,13.8476562 L21.6640625,15.4335938 C21.6640625,15.8802106 21.7141922,16.4680953 21.8144531,17.1972656 C21.7141922,17.3977875 21.6640625,17.5572911 21.6640625,17.6757812 C21.7643234,17.8580738 21.8144531,18.0677071 21.8144531,18.3046875 C21.6686191,18.3046875 21.5091154,18.4641911 21.3359375,18.7832031 C21.7643251,18.7832031 21.9785156,18.9973937 21.9785156,19.4257812 C21.9785156,19.899742 21.2356845,20.8020767 19.75,22.1328125 L19.75,22.7753906 C20.0963559,22.5657542 20.3606762,22.4609375 20.5429688,22.4609375 C21.5000048,22.8072934 21.9785156,23.4453079 21.9785156,24.375 C21.477211,24.5846365 20.9440132,25.0084604 20.3789062,25.6464844 L20.2285156,25.6464844 L20.2285156,26.125 L20.0644531,26.9179688 L19.9003906,26.9179688 L18.3144531,27.0820312 L18.3144531,26.7675781 L18.4648438,25.6464844 C18.2825512,25.6464844 18.0182309,25.4869808 17.671875,25.1679688 C17.4440093,25.1679688 17.0703151,25.7512962 16.5507812,26.9179688 C16.1953107,26.9179688 15.9309904,26.9726557 15.7578125,27.0820312 C15.1744762,26.9726557 14.7506524,26.9179688 14.4863281,26.9179688 C13.8391895,27.1367198 13.0416714,27.2962235 12.09375,27.3964844 L9.8515625,26.4394531 C9.8515625,26.5944018 9.69205889,26.7539054 9.37304688,26.9179688 L9.22265625,26.9179688 C8.68489314,26.9179688 8.31119896,26.5989615 8.1015625,25.9609375 C7.89192604,25.9609375 7.78710938,25.8561208 7.78710938,25.6464844 L7.78710938,25.3320312 C7.78710938,25.1588533 8.26562021,24.7851591 9.22265625,24.2109375 L9.22265625,23.7324219 L8.58007812,24.046875 C8.20637834,24.046875 7.88737111,23.5182345 7.62304688,22.4609375 C7.46809818,22.4609375 7.30859457,22.3014339 7.14453125,21.9824219 L7.14453125,21.6542969 C7.14453125,21.4811189 7.51822543,21.3216153 8.265625,21.1757812 C8.265625,20.8567692 8.37044166,20.6972656 8.58007812,20.6972656 L8.89453125,20.6972656 C9.46875287,20.6972656 9.84244705,20.9114562 10.015625,21.3398438 L9.8515625,22.4609375 C9.96093805,22.4609375 10.015625,22.5110672 10.015625,22.6113281 C10.972661,22.5475257 11.4511719,22.4427091 11.4511719,22.296875 C11.8795594,22.3789067 12.09375,22.4837233 12.09375,22.6113281 C12.4401059,22.4016917 12.7591131,22.296875 13.0507812,22.296875 L13.2011719,22.296875 L13.6796875,22.6113281 C14.0989604,22.2923161 14.4179677,22.1328125 14.6367188,22.1328125 C15.1744819,22.4518245 15.602863,22.6113281 15.921875,22.6113281 C16.2864602,22.2923161 16.8151007,22.1328125 17.5078125,22.1328125 L17.5078125,21.9824219 L17.0292969,21.3398438 L17.0292969,21.1757812 L17.3574219,20.0683594 C17.1386708,20.0683594 17.0292969,19.9589855 17.0292969,19.7402344 L17.0292969,19.4257812 L17.3574219,18.9472656 L17.3574219,18.46875 C16.9290343,18.46875 16.7148438,18.2545594 16.7148438,17.8261719 C16.7148438,17.725911 16.979164,17.356774 17.5078125,16.71875 C17.1614566,16.4999989 16.8424494,16.390625 16.5507812,16.390625 L15.7578125,16.5546875 C15.5755199,16.445312 15.3613294,16.390625 15.1152344,16.390625 C14.9511711,16.390625 14.7415377,16.6048156 14.4863281,17.0332031 C13.8483041,17.2884127 13.5292969,17.5026033 13.5292969,17.6757812 C13.0371069,17.1380181 11.9707113,16.8190109 10.3300781,16.71875 C9.37304209,16.4088526 8.89453125,15.9303418 8.89453125,15.2832031 L8.89453125,15.1191406 C8.89453125,14.9277334 9.37304209,14.5039095 10.3300781,13.8476562 L9.37304688,13.6835938 Z M27.6113281,2.03515625 C28.0397157,2.03515625 28.3587229,2.72785766 28.5683594,4.11328125 C28.9967469,4.11328125 29.3157542,4.32291457 29.5253906,4.7421875 L29.5253906,4.90625 C29.5253906,5.14323035 29.4707037,5.35742092 29.3613281,5.54882812 C29.4707037,5.7311207 29.5253906,5.94075402 29.5253906,6.17773438 C29.5253906,6.28710992 29.4707037,6.34179688 29.3613281,6.34179688 L29.5253906,7.1484375 L29.5253906,8.734375 C29.5253906,8.84375055 29.5800776,8.8984375 29.6894531,8.8984375 C29.5527337,9.42708598 29.3932301,9.69140625 29.2109375,9.69140625 L29.3613281,10.4980469 L29.3613281,10.6484375 C29.3613281,10.8671886 29.2565115,10.9765625 29.046875,10.9765625 L28.7324219,10.9765625 C25.6425627,8.83462471 24.0976562,7.34440523 24.0976562,6.50585938 L24.0976562,6.17773438 C24.0976562,6.00455643 24.4713504,5.84505281 25.21875,5.69921875 L25.21875,5.38476562 C24.7903624,5.38476562 24.5761719,5.22526201 24.5761719,4.90625 L24.5761719,4.59179688 L25.0546875,3.94921875 L25.0546875,3.78515625 C25.0546875,3.68489533 25.0045578,3.63476562 24.9042969,3.63476562 C25.2233089,2.91470994 25.3828125,2.48632881 25.3828125,2.34960938 L26.96875,2.51367188 C26.96875,2.35872318 27.1829406,2.19921957 27.6113281,2.03515625 Z M37.0175781,2.19921875 C37.2272146,2.19921875 37.7604124,2.78254625 38.6171875,3.94921875 C38.507812,4.14062596 38.453125,4.35481652 38.453125,4.59179688 C38.6718761,5.0110698 38.8313797,5.22070312 38.9316406,5.22070312 C38.9316406,6.65169986 38.6673204,7.82291211 38.1386719,8.734375 L38.1386719,8.8984375 L38.6171875,9.69140625 L38.3027344,10.3339844 L38.453125,11.2910156 L38.3027344,11.6054688 C38.384766,12.0338563 38.4895827,12.2480469 38.6171875,12.2480469 L37.8242188,13.5195312 C38.0338552,13.5559898 38.1386719,13.6653637 38.1386719,13.8476562 L37.8242188,13.9980469 L37.6601562,13.9980469 L37.6601562,13.6835938 L37.4960938,13.6835938 C37.2864573,13.7200523 37.1816406,13.8248689 37.1816406,13.9980469 L37.9746094,15.2832031 L37.9746094,15.4335937 C37.6829412,15.7343765 37.4733079,16.2675743 37.3457031,17.0332031 C36.9537741,17.0332031 36.6347669,17.2473937 36.3886719,17.6757812 C36.4889328,17.8763031 36.5390625,18.0358067 36.5390625,18.1542969 C36.256509,18.1542969 35.9921887,18.7923113 35.7460938,20.0683594 C35.9283863,20.5970079 36.1927066,20.8613281 36.5390625,20.8613281 C37.1770865,20.8613281 37.4960938,20.5970079 37.4960938,20.0683594 L37.8242188,20.0683594 C38.4713574,20.0683594 39.0546849,20.4374963 39.5742188,21.1757812 C39.5742188,21.5950542 39.2005246,22.073565 38.453125,22.6113281 L37.9746094,23.2539062 C38.0839849,23.5729183 38.1933588,23.7324219 38.3027344,23.7324219 C38.3027344,23.8326828 38.0338569,24.206377 37.4960938,24.8535156 L37.4960938,26.2890625 C36.6848918,27.0273474 35.9420607,27.3964844 35.2675781,27.3964844 C34.5930956,27.1868479 34.1692717,27.0820312 33.9960938,27.0820312 C33.8867182,27.4010433 33.567711,27.5605469 33.0390625,27.5605469 C32.9205723,27.5605469 32.7610687,27.5058599 32.5605469,27.3964844 L31.7539062,27.7246094 C31.3437479,27.5058583 30.7604204,27.3964844 30.0039062,27.3964844 C29.4752578,27.6425794 29.2109375,27.802083 29.2109375,27.875 L28.4042969,27.5605469 L27.4472656,27.7246094 C27.4472656,27.4238266 26.9186251,27.2096361 25.8613281,27.0820312 C25.1139286,26.4440072 24.7402344,26.0201833 24.7402344,25.8105469 C24.8496099,25.6009104 24.9042969,25.4414068 24.9042969,25.3320312 C24.4029923,25.3320312 24.0839851,24.5345132 23.9472656,22.9394531 C23.8378901,22.9394531 23.7832031,22.8847662 23.7832031,22.7753906 L23.7832031,22.296875 C23.7832031,22.1874995 23.8378901,22.1328125 23.9472656,22.1328125 C23.7285145,21.7864566 23.6191406,21.4674494 23.6191406,21.1757812 C23.6191406,20.8932278 23.7285145,20.5742205 23.9472656,20.21875 C23.8378901,19.6354138 23.7832031,19.2115899 23.7832031,18.9472656 C23.9746103,18.4368464 24.3984342,17.9036486 25.0546875,17.3476562 C24.0976515,16.9192687 23.6191406,16.3359412 23.6191406,15.5976563 C23.4095042,15.5976563 23.3046875,15.4928396 23.3046875,15.2832031 L23.3046875,15.1191406 C23.5416679,14.5084605 23.8606751,14.0299496 24.2617188,13.6835938 C24.2617188,13.5195304 24.0475282,13.3600268 23.6191406,13.2050781 L22.8261719,13.3691406 L22.6621094,13.0410156 C22.6621094,12.958984 22.7167963,12.6399767 22.8261719,12.0839844 C22.7167963,11.5006481 22.6621094,11.0768242 22.6621094,10.8125 L23.140625,10.4980469 L23.46875,10.4980469 L23.9472656,10.8125 L24.2617188,10.8125 C24.4713552,10.8125 24.5761719,10.7076833 24.5761719,10.4980469 L24.5761719,8.8984375 C24.6126304,8.68880104 24.7220043,8.58398438 24.9042969,8.58398438 C27.3925906,10.434254 28.9329397,11.655596 29.5253906,12.2480469 C29.3157542,13.2779999 29.2109375,13.8613274 29.2109375,13.9980469 L29.2109375,14.3261719 C29.2109375,14.4264328 29.2610672,14.4765625 29.3613281,14.4765625 C28.9420552,15.1237012 28.7324219,15.5520823 28.7324219,15.7617188 C28.9420583,15.7890626 29.046875,15.8938793 29.046875,16.0761719 C28.9648433,17.1425835 28.8053397,17.6757812 28.5683594,17.6757812 C28.7779958,18.0221371 28.8828125,18.3411444 28.8828125,18.6328125 L28.8828125,19.1113281 C28.8828125,19.3938816 28.7779958,19.7128888 28.5683594,20.0683594 C28.6777349,20.7063834 28.8372385,21.0253906 29.046875,21.0253906 L29.8398438,20.8613281 C30.1588558,21.2532572 30.3183594,21.6269513 30.3183594,21.9824219 L30.3183594,22.296875 L30.1679688,22.6113281 C30.6966172,22.8574231 30.9609375,23.0169267 30.9609375,23.0898438 C31.170574,22.9895828 31.3300776,22.9394531 31.4394531,22.9394531 C31.785809,23.1490896 32.1048162,23.2539062 32.3964844,23.2539062 C33.1438839,23.2539062 33.5175781,22.137381 33.5175781,19.9042969 C33.617839,19.9042969 33.6679688,19.8496099 33.6679688,19.7402344 C33.4583323,19.3938785 33.3535156,19.0748713 33.3535156,18.7832031 C33.3535156,18.5735667 33.5130192,18.2044297 33.8320312,17.6757812 C33.3945291,17.5299472 33.0755218,17.2610697 32.875,16.8691406 L32.875,16.2402344 C32.875,15.8483053 33.1393203,15.4199242 33.6679688,14.9550781 L33.5175781,13.9980469 L33.8320312,13.5195312 C33.6223948,13.1731754 33.5175781,12.8541681 33.5175781,12.5625 L33.5175781,12.2480469 C33.5175781,12.1386713 33.5677078,12.0839844 33.6679688,12.0839844 L33.5175781,11.7695312 L33.5175781,10.9765625 L33.8320312,9.0625 L33.6679688,8.734375 C33.7773443,8.09635098 33.8867182,7.77734375 33.9960938,7.77734375 C33.9960938,7.67708283 33.9414068,7.62695312 33.8320312,7.62695312 C33.9414068,6.56054154 33.9960938,5.75846623 33.9960938,5.22070312 L33.9960938,4.59179688 L34.625,3.78515625 C34.625,3.5481759 34.5748703,3.33854258 34.4746094,3.15625 C34.5110679,2.86458187 34.7207012,2.59570436 35.1035156,2.34960938 L36.2246094,2.828125 C36.2246094,2.71874945 36.4889296,2.50911613 37.0175781,2.19921875 Z M50.4707031,1.2421875 C51.2272173,1.34244842 51.6510412,1.39257812 51.7421875,1.39257812 L52.5488281,1.2421875 C53.1595083,1.56119951 53.5833321,1.72070312 53.8203125,1.72070312 L53.8203125,2.03515625 L53.5058594,2.51367188 C53.8431006,2.51367188 54.2669245,2.8326791 54.7773438,3.47070312 C55.0143241,3.47070312 55.1738277,3.94921396 55.2558594,4.90625 C54.9368474,5.65364957 54.7226568,6.40103793 54.6132812,7.1484375 C55.0416688,7.36718859 55.2558594,7.63150887 55.2558594,7.94140625 L54.9414062,8.58398438 C55.0234379,9.0032573 55.1282546,9.21289062 55.2558594,9.21289062 L55.0917969,9.54101562 L55.0917969,11.1269531 L54.7773438,11.6054688 C55.0963558,12.0156271 55.2558594,12.3346343 55.2558594,12.5625 L55.0917969,13.2050781 C55.2011724,13.4147146 55.2558594,13.5742182 55.2558594,13.6835938 L54.9414062,14.4765625 C55.4244816,14.686199 55.6888019,14.9003895 55.734375,15.1191406 L55.734375,15.5976562 C55.1419241,15.5976562 54.6087263,15.9713504 54.1347656,16.71875 L53.8203125,16.71875 C53.710937,16.5091135 53.65625,16.3496099 53.65625,16.2402344 L52.6992188,16.2402344 C52.2434873,16.2402344 51.8196634,16.345051 51.4277344,16.5546875 C51.3001296,16.445312 50.9811223,16.390625 50.4707031,16.390625 C50.8990907,17.0013051 51.1132812,17.5345029 51.1132812,17.9902344 C51.6419297,18.0631514 51.90625,18.222655 51.90625,18.46875 L51.90625,18.6328125 L48.8710938,21.9824219 L48.5566406,21.9824219 C48.5566406,21.6816391 47.9733131,20.9889377 46.8066406,19.9042969 L46.6425781,19.9042969 C46.6425781,20.5423209 46.2688839,20.8613281 45.5214844,20.8613281 L46.8066406,21.6542969 C46.8066406,21.7636724 46.7519537,21.8183594 46.6425781,21.8183594 L46.8066406,22.9394531 C46.8066406,23.2949237 46.7519537,23.5592439 46.6425781,23.7324219 L46.8066406,24.6894531 L46.8066406,25.8105469 C46.1686166,26.2571637 45.8496094,26.6263006 45.8496094,26.9179688 C45.8496094,27.6015659 45.6901058,27.9752601 45.3710938,28.0390625 C45.0520817,28.0390625 44.5735709,27.8248719 43.9355469,27.3964844 L43.1289062,27.7246094 L42.5,27.2460938 C42.7096365,26.8085916 42.8144531,26.4895843 42.8144531,26.2890625 C42.3769509,26.1432284 42.0579437,25.8743509 41.8574219,25.4824219 C41.8574219,25.1634099 41.9121088,25.0039062 42.0214844,25.0039062 L41.8574219,24.2109375 L41.8574219,23.8964844 C41.8574219,23.6048162 41.9622385,23.285809 42.171875,22.9394531 C42.0716141,22.9394531 42.0214844,22.8847662 42.0214844,22.7753906 L41.6933594,22.9394531 L41.3789062,22.9394531 C41.3151038,22.9394531 40.9414097,22.6204459 40.2578125,21.9824219 C40.367188,21.0253858 40.8456989,20.546875 41.6933594,20.546875 C41.6933594,20.4374995 41.7480463,20.3828125 41.8574219,20.3828125 L41.5429688,18.9472656 C41.5429688,18.4186171 41.807289,18.1542969 42.3359375,18.1542969 C42.445313,18.1542969 42.8190072,17.4069085 43.4570312,15.9121094 C43.3476557,15.7115875 43.2929688,15.5520839 43.2929688,15.4335938 L42.9785156,15.4335938 C42.5045549,15.7526058 42.0260441,15.9121094 41.5429688,15.9121094 C41.3515615,15.675129 41.1920579,15.1464885 41.0644531,14.3261719 C40.8183581,14.3261719 40.6588545,14.0572944 40.5859375,13.5195312 C40.7317716,13.5195312 40.8912752,13.3600276 41.0644531,13.0410156 L41.0644531,12.890625 C40.7454411,12.4895813 40.4765636,12.0110705 40.2578125,11.4550781 C40.4765636,10.8170541 40.7955708,10.4980469 41.2148438,10.4980469 L41.2148438,8.58398438 C41.2148438,8.33788939 41.164714,8.12369883 41.0644531,7.94140625 L41.5429688,7.1484375 L41.2148438,6.65625 L41.2148438,6.50585938 C41.2148438,6.26887902 41.2695307,6.05468846 41.3789062,5.86328125 C41.2695307,5.68098867 41.2148438,5.46679811 41.2148438,5.22070312 L41.2148438,4.90625 C41.2513023,4.69661354 41.3606762,4.59179688 41.5429688,4.59179688 C41.3242177,4.24544098 41.2148438,3.92643375 41.2148438,3.63476562 C42.4726625,2.13996648 43.4296842,1.39257812 44.0859375,1.39257812 C44.195313,1.39257812 44.25,1.44726508 44.25,1.55664062 L45.2070312,1.39257812 C46.1367234,1.50195367 46.6699212,1.55664062 46.8066406,1.55664062 L46.8066406,1.39257812 C47.189455,1.61132922 47.6132789,1.72070312 48.078125,1.72070312 L48.2421875,1.39257812 L49.828125,1.55664062 L49.9921875,1.55664062 L50.4707031,1.2421875 Z M48.078125,6.34179688 L47.2851562,6.17773438 C46.7109346,6.28710992 46.2324238,6.34179688 45.8496094,6.34179688 L45.8496094,6.50585938 C45.8678386,6.93424693 45.9726553,7.1484375 46.1640625,7.1484375 L46,7.46289062 L46.328125,9.37695312 C46.1731763,9.37695312 46.0136727,9.53645674 45.8496094,9.85546875 C45.9954434,9.85546875 46.1549471,10.0149724 46.328125,10.3339844 L46.328125,11.6054688 C46.4375005,11.6054688 46.5970042,11.6601557 46.8066406,11.7695312 C47.3444037,11.5598948 47.7682276,11.4550781 48.078125,11.4550781 C48.2604176,11.4733074 48.6842415,11.7376277 49.3496094,12.2480469 C49.3496094,11.9381495 49.5637999,11.6738292 49.9921875,11.4550781 L49.828125,11.1269531 C49.828125,10.8079411 49.9876286,10.6484375 50.3066406,10.6484375 L50.3066406,9.69140625 L50.6347656,9.21289062 L50.6347656,9.0625 C50.6347656,8.87109279 50.475262,8.39258195 50.15625,7.62695312 C50.3658865,6.65168783 50.4707031,6.11849004 50.4707031,6.02734375 L50.15625,5.86328125 L49.9921875,5.86328125 C49.782551,6.07291771 49.1445366,6.23242133 48.078125,6.34179688 Z M52.4121094,19.2207031 L52.5761719,19.2207031 C52.8769546,19.2207031 53.4602821,20.1777248 54.3261719,22.0917969 C54.6269546,22.0917969 55.1054655,22.6249947 55.7617188,23.6914062 C55.9804698,23.7278648 56.0898438,23.8326814 56.0898438,24.0058594 L56.0898438,24.1699219 C56.0898438,24.7441435 55.8209662,25.1679674 55.2832031,25.4414062 C55.5019542,25.8789084 55.6113281,26.1979157 55.6113281,26.3984375 C55.6113281,27.1458371 54.7591231,27.5195312 53.0546875,27.5195312 L53.0546875,27.3554688 C51.9882759,26.7539032 51.4550781,26.1158888 51.4550781,25.4414062 C51.0358052,25.4414062 50.6666683,25.0722693 50.3476562,24.3339844 L50.4980469,24.0058594 C50.4980469,23.8873692 50.1289099,23.5182323 49.390625,22.8984375 L49.390625,22.734375 C49.5729176,22.1966119 50.580069,21.0253996 52.4121094,19.2207031 Z M71.4433594,1.87109375 C71.944664,2.82812979 72.2636712,3.30664062 72.4003906,3.30664062 C72.9290391,3.38867229 73.1933594,3.5481759 73.1933594,3.78515625 C72.7649718,5.99089645 72.1816443,7.69530648 71.4433594,8.8984375 L71.2792969,9.85546875 C71.4889333,10.2018246 71.59375,10.5208319 71.59375,10.8125 C70.317702,11.0312511 69.6796875,11.5097619 69.6796875,12.2480469 C69.789063,12.5670589 69.898437,12.7265625 70.0078125,12.7265625 L69.84375,13.0410156 C69.9531255,13.7975298 70.0078125,14.225911 70.0078125,14.3261719 C69.6888005,15.0462276 69.5292969,15.6295551 69.5292969,16.0761719 L69.5292969,16.5546875 L70.6367188,16.390625 C70.7643236,17.1197953 70.9238272,17.5983062 71.1152344,17.8261719 L71.1152344,17.9902344 C70.6959614,18.4824243 70.4863281,18.8561185 70.4863281,19.1113281 L69.84375,19.1113281 L69.3652344,18.7832031 L69.2011719,18.7832031 C69.100911,18.7832031 69.0507812,18.8378901 69.0507812,18.9472656 L68.7226562,18.7832031 L67.9296875,18.7832031 L67.9296875,18.9472656 C68.2486995,19.4759141 68.4082031,19.899738 68.4082031,20.21875 L67.9296875,20.546875 L68.09375,20.8613281 L68.09375,21.6542969 C67.5559869,22.337894 67.2871094,23.2949157 67.2871094,24.5253906 C66.6764292,25.2089878 66.1979184,26.1158798 65.8515625,27.2460938 C65.496092,27.5195326 65.0175811,27.7291659 64.4160156,27.875 C64.0423158,27.8203122 63.618492,27.501305 63.1445312,26.9179688 C62.9075509,26.9179688 62.6933603,26.9726557 62.5019531,27.0820312 C61.7363243,27.0820312 61.0983098,25.965506 60.5878906,23.7324219 C60.6972662,23.5501293 60.7519531,23.3359387 60.7519531,23.0898438 C60.4693996,23.0898438 60.2050794,22.187509 59.9589844,20.3828125 L60.4375,19.5898438 C59.9361954,19.1888001 59.5625012,18.6556023 59.3164062,17.9902344 C59.052082,17.9902344 58.8925784,17.7760438 58.8378906,17.3476562 C58.8378906,17.25651 58.8925776,16.8326861 59.0019531,16.0761719 L58.1953125,16.0761719 C57.985676,16.0761719 57.8808594,15.9713552 57.8808594,15.7617188 L57.8808594,14.9550781 L62.5019531,10.8125 L62.8300781,10.8125 C63.1490901,10.8125 63.4134104,11.5553311 63.6230469,13.0410156 C63.6230469,13.2688813 63.5683599,13.8567661 63.4589844,14.8046875 C63.8873719,15.4427115 64.1015625,15.9212224 64.1015625,16.2402344 C63.992187,16.4407562 63.9375,16.6002598 63.9375,16.71875 L64.265625,16.8691406 L64.5800781,16.2402344 L64.4160156,15.9121094 L65.5371094,13.2050781 C65.8470068,11.7285082 66.2708306,10.3476627 66.8085938,9.0625 C66.8085938,8.77083187 67.0774713,7.96875656 67.6152344,6.65625 C67.8613294,3.89451744 68.6588474,2.51367188 70.0078125,2.51367188 C70.6184926,2.08528432 71.0970035,1.87109375 71.4433594,1.87109375 Z M59.1523438,2.2265625 L59.4804688,2.2265625 C59.8268246,2.54557451 60.4648391,3.06510057 61.3945312,3.78515625 L61.5449219,4.11328125 L61.5449219,4.26367188 C61.5449219,4.50976686 61.4947922,4.72395742 61.3945312,4.90625 C61.8138042,5.65364957 62.0234375,6.18684736 62.0234375,6.50585938 L62.0234375,6.65625 L61.8730469,6.984375 C62.0371102,6.984375 62.2467435,7.19856557 62.5019531,7.62695312 L62.5019531,7.94140625 C62.5019531,8.0507818 62.4518234,8.10546875 62.3515625,8.10546875 C62.4973966,8.57031482 62.7070299,8.99413871 62.9804688,9.37695312 L62.9804688,9.85546875 C62.8255201,9.85546875 61.9231853,10.6529868 60.2734375,12.2480469 C59.9270816,12.4576833 59.6080744,12.5625 59.3164062,12.5625 C59.3164062,12.4622391 59.1022157,12.3027355 58.6738281,12.0839844 L58.8378906,11.7695312 C58.1998666,10.4205662 57.8808594,9.67773506 57.8808594,9.54101562 L57.8808594,8.58398438 C57.6712229,8.47460883 57.5117193,8.41992188 57.4023438,8.41992188 L57.4023438,8.10546875 L57.5664062,6.21875 C57.1380187,6.21875 56.8691412,5.89974277 56.7597656,5.26171875 C56.7597656,3.4479076 57.452467,2.54101562 58.8378906,2.54101562 C58.8743491,2.33137916 58.9791658,2.2265625 59.1523438,2.2265625 Z M59.3164062,12.5625 L59.3164062,13.0410156 L59.0019531,13.0410156 L59.0019531,12.890625 C59.029297,12.6718739 59.1341137,12.5625 59.3164062,12.5625 Z M78.3476562,1.87109375 L79.140625,2.03515625 C79.705732,1.9257807 80.2389298,1.87109375 80.7402344,1.87109375 C80.8951831,1.87109375 81.0546867,2.03059736 81.21875,2.34960938 L81.0546875,3.78515625 C81.3736995,3.78515625 81.5332031,4.47785766 81.5332031,5.86328125 L81.0546875,6.17773438 C81.0546875,6.54231953 81.2688781,7.07551732 81.6972656,7.77734375 C81.4876292,8.21484594 81.3828125,8.53385316 81.3828125,8.734375 C81.592449,8.77083352 81.6972656,8.88020742 81.6972656,9.0625 L81.6972656,10.8125 L81.3828125,10.8125 C79.6692623,10.2018199 78.1790428,9.19011123 76.9121094,7.77734375 C76.9121094,7.6041658 76.8072927,7.18034191 76.5976562,6.50585938 L76.7480469,5.86328125 C76.5384104,4.46874303 76.4335938,3.61653801 76.4335938,3.30664062 C77.1080763,2.34960459 77.7460907,1.87109375 78.3476562,1.87109375 Z M75.4765625,8.8984375 L75.7910156,8.8984375 L76.4335938,9.37695312 L76.5976562,9.37695312 L77.0761719,9.0625 L77.390625,9.0625 C78.1744831,9.38151201 79.3456953,10.3385337 80.9042969,11.9335938 C81.1868504,11.9973962 81.4511706,12.2617164 81.6972656,12.7265625 L81.6972656,13.0410156 C81.6972656,13.277996 81.6425787,13.4921865 81.5332031,13.6835938 L81.6972656,13.9980469 L81.5332031,14.9550781 C81.5332031,15.0644537 81.5878901,15.1191406 81.6972656,15.1191406 C81.4876292,15.5475282 81.3828125,15.9212224 81.3828125,16.2402344 L81.5332031,16.2402344 C81.733725,16.2402344 82.0026025,15.7617235 82.3398438,14.8046875 L82.6542969,14.8046875 C83.6022183,15.0781264 84.1855458,15.5019503 84.4042969,16.0761719 L84.4042969,16.390625 C84.0852849,16.7552102 83.8756515,17.233721 83.7753906,17.8261719 C83.2376275,17.8261719 82.96875,17.8808588 82.96875,17.9902344 C82.1210895,17.6712224 81.592449,17.4069021 81.3828125,17.1972656 C81.3007808,17.753258 81.0319033,18.2317688 80.5761719,18.6328125 C80.3665354,19.3164097 80.2617188,19.7949205 80.2617188,20.0683594 C80.2617188,20.5149762 80.4759093,21.0983037 80.9042969,21.8183594 L81.0546875,22.9394531 C80.8541657,23.039714 80.6946621,23.0898438 80.5761719,23.0898438 C80.5761719,23.4817728 80.7903624,23.9602836 81.21875,24.5253906 L81.21875,24.8535156 C81.21875,24.9537765 81.164063,25.0039062 81.0546875,25.0039062 L81.3828125,25.6464844 C81.3007808,26.3938839 80.9817736,26.7675781 80.4257812,26.7675781 C80.234374,26.6582026 80.0201835,26.6035156 79.7832031,26.6035156 C78.8261671,26.9225276 78.028649,27.0820312 77.390625,27.0820312 L76.2695312,25.4824219 C76.3424483,24.7441369 76.4518222,24.375 76.5976562,24.375 C76.4335929,23.9466124 76.2740893,23.7324219 76.1191406,23.7324219 L76.4335938,21.3398438 L76.2695312,21.3398438 C76.4882823,20.9934879 76.5976562,20.7291676 76.5976562,20.546875 C76.4518222,20.5377604 76.1829447,19.790372 75.7910156,18.3046875 C76.1464862,17.8398414 76.4654934,16.9921937 76.7480469,15.7617188 L76.9121094,15.7617188 L76.7480469,14.9550781 C76.7480469,14.8548172 76.8027338,14.8046875 76.9121094,14.8046875 L76.7480469,13.9980469 L76.7480469,13.3691406 C75.5631451,13.7884136 74.820314,13.9980469 74.5195312,13.9980469 L74.3554688,13.9980469 C74.2005201,13.9980469 74.0410164,13.8385433 73.8769531,13.5195312 L73.8769531,13.2050781 C73.8769531,12.9225246 74.6744712,12.4987007 76.2695312,11.9335938 L76.5976562,12.0839844 L76.7480469,12.0839844 L76.7480469,11.9335938 C76.3561178,11.5416647 75.6679737,11.1679705 74.6835938,10.8125 C74.5742182,10.6210928 74.5195312,10.4069022 74.5195312,10.1699219 C75.0117212,9.32226139 75.3307284,8.8984375 75.4765625,8.8984375 Z M99.7714844,1.87109375 C100.272789,2.82812979 100.591796,3.30664062 100.728516,3.30664062 C101.257164,3.38867229 101.521484,3.5481759 101.521484,3.78515625 C101.093097,5.99089645 100.509769,7.69530648 99.7714844,8.8984375 L99.6074219,9.85546875 C99.8170583,10.2018246 99.921875,10.5208319 99.921875,10.8125 C98.645827,11.0312511 98.0078125,11.5097619 98.0078125,12.2480469 C98.117188,12.5670589 98.226562,12.7265625 98.3359375,12.7265625 L98.171875,13.0410156 C98.2812505,13.7975298 98.3359375,14.225911 98.3359375,14.3261719 C98.0169255,15.0462276 97.8574219,15.6295551 97.8574219,16.0761719 L97.8574219,16.5546875 L98.9648438,16.390625 C99.0924486,17.1197953 99.2519522,17.5983062 99.4433594,17.8261719 L99.4433594,17.9902344 C99.0240864,18.4824243 98.8144531,18.8561185 98.8144531,19.1113281 L98.171875,19.1113281 L97.6933594,18.7832031 L97.5292969,18.7832031 C97.429036,18.7832031 97.3789062,18.8378901 97.3789062,18.9472656 L97.0507812,18.7832031 L96.2578125,18.7832031 L96.2578125,18.9472656 C96.5768245,19.4759141 96.7363281,19.899738 96.7363281,20.21875 L96.2578125,20.546875 L96.421875,20.8613281 L96.421875,21.6542969 C95.8841119,22.337894 95.6152344,23.2949157 95.6152344,24.5253906 C95.0045542,25.2089878 94.5260434,26.1158798 94.1796875,27.2460938 C93.824217,27.5195326 93.3457061,27.7291659 92.7441406,27.875 C92.3704408,27.8203122 91.946617,27.501305 91.4726562,26.9179688 C91.2356759,26.9179688 91.0214853,26.9726557 90.8300781,27.0820312 C90.0644493,27.0820312 89.4264348,25.965506 88.9160156,23.7324219 C89.0253912,23.5501293 89.0800781,23.3359387 89.0800781,23.0898438 C88.7975246,23.0898438 88.5332044,22.187509 88.2871094,20.3828125 L88.765625,19.5898438 C88.2643204,19.1888001 87.8906262,18.6556023 87.6445312,17.9902344 C87.380207,17.9902344 87.2207034,17.7760438 87.1660156,17.3476562 C87.1660156,17.25651 87.2207026,16.8326861 87.3300781,16.0761719 L86.5234375,16.0761719 C86.313801,16.0761719 86.2089844,15.9713552 86.2089844,15.7617188 L86.2089844,14.9550781 L90.8300781,10.8125 L91.1582031,10.8125 C91.4772151,10.8125 91.7415354,11.5553311 91.9511719,13.0410156 C91.9511719,13.2688813 91.8964849,13.8567661 91.7871094,14.8046875 C92.2154969,15.4427115 92.4296875,15.9212224 92.4296875,16.2402344 C92.320312,16.4407562 92.265625,16.6002598 92.265625,16.71875 L92.59375,16.8691406 L92.9082031,16.2402344 L92.7441406,15.9121094 L93.8652344,13.2050781 C94.1751318,11.7285082 94.5989556,10.3476627 95.1367188,9.0625 C95.1367188,8.77083187 95.4055963,7.96875656 95.9433594,6.65625 C96.1894544,3.89451744 96.9869724,2.51367188 98.3359375,2.51367188 C98.9466176,2.08528432 99.4251285,1.87109375 99.7714844,1.87109375 Z M87.4804688,2.2265625 L87.8085938,2.2265625 C88.1549496,2.54557451 88.7929641,3.06510057 89.7226562,3.78515625 L89.8730469,4.11328125 L89.8730469,4.26367188 C89.8730469,4.50976686 89.8229172,4.72395742 89.7226562,4.90625 C90.1419292,5.65364957 90.3515625,6.18684736 90.3515625,6.50585938 L90.3515625,6.65625 L90.2011719,6.984375 C90.3652352,6.984375 90.5748685,7.19856557 90.8300781,7.62695312 L90.8300781,7.94140625 C90.8300781,8.0507818 90.7799484,8.10546875 90.6796875,8.10546875 C90.8255216,8.57031482 91.0351549,8.99413871 91.3085938,9.37695312 L91.3085938,9.85546875 C91.1536451,9.85546875 90.2513103,10.6529868 88.6015625,12.2480469 C88.2552066,12.4576833 87.9361994,12.5625 87.6445312,12.5625 C87.6445312,12.4622391 87.4303407,12.3027355 87.0019531,12.0839844 L87.1660156,11.7695312 C86.5279916,10.4205662 86.2089844,9.67773506 86.2089844,9.54101562 L86.2089844,8.58398438 C85.9993479,8.47460883 85.8398443,8.41992188 85.7304688,8.41992188 L85.7304688,8.10546875 L85.8945312,6.21875 C85.4661437,6.21875 85.1972662,5.89974277 85.0878906,5.26171875 C85.0878906,3.4479076 85.780592,2.54101562 87.1660156,2.54101562 C87.2024741,2.33137916 87.3072908,2.2265625 87.4804688,2.2265625 Z M87.6445312,12.5625 L87.6445312,13.0410156 L87.3300781,13.0410156 L87.3300781,12.890625 C87.357422,12.6718739 87.4622387,12.5625 87.6445312,12.5625 Z M107.167969,10.3886719 C107.550783,10.607423 107.91992,11.1223918 108.275391,11.9335938 C108.193359,12.4622422 108.033855,12.7265625 107.796875,12.7265625 L107.947266,13.5195312 L107.947266,13.8476562 L107.796875,14.640625 C108.006511,14.6770835 108.111328,14.7819002 108.111328,14.9550781 L108.111328,15.9121094 C108.111328,16.2675799 108.056641,16.5364574 107.947266,16.71875 L108.111328,17.6757812 L108.111328,18.9472656 C108.111328,19.184246 108.056641,19.3984365 107.947266,19.5898438 C107.947266,19.6901047 108.001953,19.7402344 108.111328,19.7402344 C108.111328,19.8587246 108.056641,20.0182282 107.947266,20.21875 C108.029297,21.6041736 108.138671,22.296875 108.275391,22.296875 L108.111328,22.6113281 L108.111328,22.7753906 C108.147787,22.9850271 108.252603,23.0898438 108.425781,23.0898438 L109.068359,22.6113281 C110.490241,22.8300792 111.342447,23.0989567 111.625,23.4179688 L111.775391,23.0898438 C111.565754,23.0898438 111.460938,22.9303401 111.460938,22.6113281 L111.625,21.5039062 C111.406249,21.0664041 111.296875,20.7473968 111.296875,20.546875 C111.406251,20.3372385 111.460938,20.1777349 111.460938,20.0683594 L111.296875,19.7402344 L111.939453,18.9472656 C111.593097,17.9902296 111.328777,17.5117188 111.146484,17.5117188 C111.037109,17.5117188 110.982422,17.5664057 110.982422,17.6757812 C110.845702,17.6757812 110.472008,17.356774 109.861328,16.71875 C109.861328,15.6523384 110.130206,15.1191406 110.667969,15.1191406 C111.014325,15.1191406 111.383462,14.8001334 111.775391,14.1621094 L111.625,13.3691406 L111.625,12.7265625 C111.625,12.1705701 111.784504,11.6920593 112.103516,11.2910156 C111.848306,11.2910156 111.688802,10.9173214 111.625,10.1699219 C111.625,9.2311151 111.784504,8.54297094 112.103516,8.10546875 C111.839191,7.03905717 111.625001,6.50585938 111.460938,6.50585938 L110.667969,6.65625 C110.321613,6.44661354 110.052735,6.34179688 109.861328,6.34179688 C108.804031,6.66080889 108.275391,6.97981611 108.275391,7.29882812 C108.375652,8.02799844 108.425781,8.61588318 108.425781,9.0625 L108.425781,9.54101562 C108.188801,9.77799598 107.769534,10.0605452 107.167969,10.3886719 Z M104.611328,11.6464844 C104.310545,11.7923184 103.986981,11.9381503 103.640625,12.0839844 L103.640625,11.9335938 C103.640625,11.8151036 103.695312,11.6556 103.804688,11.4550781 C103.485675,10.9537735 103.271485,10.4205757 103.162109,9.85546875 C102.524085,9.85546875 102.205078,9.75065209 102.205078,9.54101562 L102.205078,9.0625 C103.27149,8.178381 103.804688,7.05729846 103.804688,5.69921875 L103.640625,4.90625 C103.722657,4.47786244 103.832031,4.26367188 103.96875,4.26367188 C103.749999,3.91731598 103.640625,3.59830875 103.640625,3.30664062 L103.640625,3.15625 C103.640625,2.66406004 104.388013,2.23567891 105.882812,1.87109375 L106.675781,1.87109375 C107.423181,1.90755227 107.796875,2.01692617 107.796875,2.19921875 L108.753906,1.72070312 C108.854167,1.72070312 108.904297,1.77083283 108.904297,1.87109375 L110.503906,1.72070312 L111.939453,1.72070312 C112.686853,1.72070312 113.27018,1.93033645 113.689453,2.34960938 C113.89909,2.24934846 114.058593,2.19921875 114.167969,2.19921875 C115.763029,2.62760631 116.560547,3.42512437 116.560547,4.59179688 C116.669922,5.52148902 116.724609,6.05012957 116.724609,6.17773438 C116.542317,6.28710992 116.328126,6.34179688 116.082031,6.34179688 C116.082031,6.49674557 116.669916,6.76562309 117.845703,7.1484375 C117.845703,7.25781305 117.895833,7.41731666 117.996094,7.62695312 C117.996094,7.71809941 117.78646,8.03710664 117.367188,8.58398438 L117.517578,9.54101562 C116.560542,9.66862043 116.082031,9.9329407 116.082031,10.3339844 C115.662758,10.1699211 115.453125,10.0104174 115.453125,9.85546875 C115.243489,9.9648443 115.083985,10.0195312 114.974609,10.0195312 L114.974609,10.1699219 C115.202475,10.6347679 115.785803,11.2727824 116.724609,12.0839844 L116.724609,12.2480469 C116.387368,12.8951855 116.013674,13.2688797 115.603516,13.3691406 C115.603516,13.9160184 116.031897,14.3398422 116.888672,14.640625 C116.988933,14.8502615 117.039062,15.0097651 117.039062,15.1191406 C116.446612,15.4381526 115.863284,15.5976562 115.289062,15.5976562 L115.453125,16.390625 C115.343749,16.390625 115.289062,16.445312 115.289062,16.5546875 C116.036462,16.8554703 116.410156,17.1744775 116.410156,17.5117188 C116.410156,17.5755212 116.355469,18.2682226 116.246094,19.5898438 C116.993493,19.8450534 117.367188,20.1640606 117.367188,20.546875 C117.257812,20.7473968 117.203125,20.9069004 117.203125,21.0253906 C117.412761,21.0527345 117.517578,21.1575512 117.517578,21.3398438 L117.517578,21.5039062 C117.198566,22.2421912 116.774742,22.6113281 116.246094,22.6113281 L116.082031,22.6113281 C116.218751,23.6139373 116.328125,24.2519518 116.410156,24.5253906 C116.410156,25.1998732 115.981775,25.8925746 115.125,26.6035156 C115.00651,27.4511761 114.477869,27.875 113.539062,27.875 L112.732422,27.7246094 C112.595702,27.7246094 112.012375,27.829426 110.982422,28.0390625 C109.91601,27.929687 109.382812,27.7154964 109.382812,27.3964844 C109.173176,27.3964844 108.644535,27.5058583 107.796875,27.7246094 C107.368487,27.6699216 106.994793,27.2962274 106.675781,26.6035156 C105.946611,27.2415396 105.363283,27.5605469 104.925781,27.5605469 L104.761719,27.5605469 C103.804683,26.3027281 103.326172,25.0813861 103.326172,23.8964844 C103.216796,23.1399702 103.162109,22.711589 103.162109,22.6113281 L103.490234,20.0683594 C103.335286,20.0683594 103.016278,19.7493521 102.533203,19.1113281 L102.533203,18.6328125 C102.533203,18.423176 102.85221,17.625658 103.490234,16.2402344 L103.326172,15.4335938 L103.326172,14.4765625 C103.36263,14.266926 103.467447,14.1621094 103.640625,14.1621094 L104.625,13.4511719 L104.378906,12.3847656 C104.442709,12.1113268 104.520182,11.8652355 104.611328,11.6464844 Z M128.892578,1.2421875 C129.649092,1.34244842 130.072916,1.39257812 130.164062,1.39257812 L130.970703,1.2421875 C131.581383,1.56119951 132.005207,1.72070312 132.242188,1.72070312 L132.242188,2.03515625 L131.927734,2.51367188 C132.264976,2.51367188 132.6888,2.8326791 133.199219,3.47070312 C133.436199,3.47070312 133.595703,3.94921396 133.677734,4.90625 C133.358722,5.65364957 133.144532,6.40103793 133.035156,7.1484375 C133.463544,7.36718859 133.677734,7.63150887 133.677734,7.94140625 L133.363281,8.58398438 C133.445313,9.0032573 133.55013,9.21289062 133.677734,9.21289062 L133.513672,9.54101562 L133.513672,11.1269531 L133.199219,11.6054688 C133.518231,12.0156271 133.677734,12.3346343 133.677734,12.5625 L133.513672,13.2050781 C133.623047,13.4147146 133.677734,13.5742182 133.677734,13.6835938 L133.363281,14.4765625 C133.846357,14.686199 134.110677,14.9003895 134.15625,15.1191406 L134.15625,15.5976562 C133.563799,15.5976562 133.030601,15.9713504 132.556641,16.71875 L132.242188,16.71875 C132.132812,16.5091135 132.078125,16.3496099 132.078125,16.2402344 L131.121094,16.2402344 C130.665362,16.2402344 130.241538,16.345051 129.849609,16.5546875 C129.722005,16.445312 129.402997,16.390625 128.892578,16.390625 C129.320966,17.0013051 129.535156,17.5345029 129.535156,17.9902344 C130.063805,18.0631514 130.328125,18.222655 130.328125,18.46875 L130.328125,18.6328125 L127.292969,21.9824219 L126.978516,21.9824219 C126.978516,21.6816391 126.395188,20.9889377 125.228516,19.9042969 L125.064453,19.9042969 C125.064453,20.5423209 124.690759,20.8613281 123.943359,20.8613281 L125.228516,21.6542969 C125.228516,21.7636724 125.173829,21.8183594 125.064453,21.8183594 L125.228516,22.9394531 C125.228516,23.2949237 125.173829,23.5592439 125.064453,23.7324219 L125.228516,24.6894531 L125.228516,25.8105469 C124.590492,26.2571637 124.271484,26.6263006 124.271484,26.9179688 C124.271484,27.6015659 124.111981,27.9752601 123.792969,28.0390625 C123.473957,28.0390625 122.995446,27.8248719 122.357422,27.3964844 L121.550781,27.7246094 L120.921875,27.2460938 C121.131511,26.8085916 121.236328,26.4895843 121.236328,26.2890625 C120.798826,26.1432284 120.479819,25.8743509 120.279297,25.4824219 C120.279297,25.1634099 120.333984,25.0039062 120.443359,25.0039062 L120.279297,24.2109375 L120.279297,23.8964844 C120.279297,23.6048162 120.384114,23.285809 120.59375,22.9394531 C120.493489,22.9394531 120.443359,22.8847662 120.443359,22.7753906 L120.115234,22.9394531 L119.800781,22.9394531 C119.736979,22.9394531 119.363285,22.6204459 118.679688,21.9824219 C118.789063,21.0253858 119.267574,20.546875 120.115234,20.546875 C120.115234,20.4374995 120.169921,20.3828125 120.279297,20.3828125 L119.964844,18.9472656 C119.964844,18.4186171 120.229164,18.1542969 120.757812,18.1542969 C120.867188,18.1542969 121.240882,17.4069085 121.878906,15.9121094 C121.769531,15.7115875 121.714844,15.5520839 121.714844,15.4335938 L121.400391,15.4335938 C120.92643,15.7526058 120.447919,15.9121094 119.964844,15.9121094 C119.773437,15.675129 119.613933,15.1464885 119.486328,14.3261719 C119.240233,14.3261719 119.08073,14.0572944 119.007812,13.5195312 C119.153647,13.5195312 119.31315,13.3600276 119.486328,13.0410156 L119.486328,12.890625 C119.167316,12.4895813 118.898439,12.0110705 118.679688,11.4550781 C118.898439,10.8170541 119.217446,10.4980469 119.636719,10.4980469 L119.636719,8.58398438 C119.636719,8.33788939 119.586589,8.12369883 119.486328,7.94140625 L119.964844,7.1484375 L119.636719,6.65625 L119.636719,6.50585938 C119.636719,6.26887902 119.691406,6.05468846 119.800781,5.86328125 C119.691406,5.68098867 119.636719,5.46679811 119.636719,5.22070312 L119.636719,4.90625 C119.673177,4.69661354 119.782551,4.59179688 119.964844,4.59179688 C119.746093,4.24544098 119.636719,3.92643375 119.636719,3.63476562 C120.894538,2.13996648 121.851559,1.39257812 122.507812,1.39257812 C122.617188,1.39257812 122.671875,1.44726508 122.671875,1.55664062 L123.628906,1.39257812 C124.558598,1.50195367 125.091796,1.55664062 125.228516,1.55664062 L125.228516,1.39257812 C125.61133,1.61132922 126.035154,1.72070312 126.5,1.72070312 L126.664062,1.39257812 L128.25,1.55664062 L128.414062,1.55664062 L128.892578,1.2421875 Z M126.5,6.34179688 L125.707031,6.17773438 C125.13281,6.28710992 124.654299,6.34179688 124.271484,6.34179688 L124.271484,6.50585938 C124.289714,6.93424693 124.39453,7.1484375 124.585938,7.1484375 L124.421875,7.46289062 L124.75,9.37695312 C124.595051,9.37695312 124.435548,9.53645674 124.271484,9.85546875 C124.417318,9.85546875 124.576822,10.0149724 124.75,10.3339844 L124.75,11.6054688 C124.859376,11.6054688 125.018879,11.6601557 125.228516,11.7695312 C125.766279,11.5598948 126.190103,11.4550781 126.5,11.4550781 C126.682293,11.4733074 127.106116,11.7376277 127.771484,12.2480469 C127.771484,11.9381495 127.985675,11.6738292 128.414062,11.4550781 L128.25,11.1269531 C128.25,10.8079411 128.409504,10.6484375 128.728516,10.6484375 L128.728516,9.69140625 L129.056641,9.21289062 L129.056641,9.0625 C129.056641,8.87109279 128.897137,8.39258195 128.578125,7.62695312 C128.787761,6.65168783 128.892578,6.11849004 128.892578,6.02734375 L128.578125,5.86328125 L128.414062,5.86328125 C128.204426,6.07291771 127.566412,6.23242133 126.5,6.34179688 Z M130.833984,19.2207031 L130.998047,19.2207031 C131.29883,19.2207031 131.882157,20.1777248 132.748047,22.0917969 C133.04883,22.0917969 133.52734,22.6249947 134.183594,23.6914062 C134.402345,23.7278648 134.511719,23.8326814 134.511719,24.0058594 L134.511719,24.1699219 C134.511719,24.7441435 134.242841,25.1679674 133.705078,25.4414062 C133.923829,25.8789084 134.033203,26.1979157 134.033203,26.3984375 C134.033203,27.1458371 133.180998,27.5195312 131.476562,27.5195312 L131.476562,27.3554688 C130.410151,26.7539032 129.876953,26.1158888 129.876953,25.4414062 C129.45768,25.4414062 129.088543,25.0722693 128.769531,24.3339844 L128.919922,24.0058594 C128.919922,23.8873692 128.550785,23.5182323 127.8125,22.8984375 L127.8125,22.734375 C127.994793,22.1966119 129.001944,21.0253996 130.833984,19.2207031 Z" id="SURVIVOR" fill="#7D7E73"></path>
                <path d="M73.9921875,50.8710938 L74.7851562,51.0351562 C75.3502632,50.9257807 75.883461,50.8710938 76.3847656,50.8710938 C76.5397143,50.8710938 76.6992179,51.0305974 76.8632812,51.3496094 L76.6992188,52.7851562 C77.0182308,52.7851562 77.1777344,53.4778577 77.1777344,54.8632812 L76.6992188,55.1777344 C76.6992188,55.5423195 76.9134093,56.0755173 77.3417969,56.7773438 C77.1321604,57.2148459 77.0273438,57.5338532 77.0273438,57.734375 C77.2369802,57.7708335 77.3417969,57.8802074 77.3417969,58.0625 L77.3417969,59.8125 L77.0273438,59.8125 C75.3137935,59.2018199 73.823574,58.1901112 72.5566406,56.7773438 C72.5566406,56.6041658 72.451824,56.1803419 72.2421875,55.5058594 L72.3925781,54.8632812 C72.1829417,53.468743 72.078125,52.616538 72.078125,52.3066406 C72.7526075,51.3496046 73.390622,50.8710938 73.9921875,50.8710938 Z M71.1210938,57.8984375 L71.4355469,57.8984375 L72.078125,58.3769531 L72.2421875,58.3769531 L72.7207031,58.0625 L73.0351562,58.0625 C73.8190143,58.381512 74.9902266,59.3385337 76.5488281,60.9335938 C76.8313816,60.9973962 77.0957019,61.2617164 77.3417969,61.7265625 L77.3417969,62.0410156 C77.3417969,62.277996 77.2871099,62.4921865 77.1777344,62.6835938 L77.3417969,62.9980469 L77.1777344,63.9550781 C77.1777344,64.0644537 77.2324213,64.1191406 77.3417969,64.1191406 C77.1321604,64.5475282 77.0273438,64.9212224 77.0273438,65.2402344 L77.1777344,65.2402344 C77.3782562,65.2402344 77.6471337,64.7617235 77.984375,63.8046875 L78.2988281,63.8046875 C79.2467495,64.0781264 79.830077,64.5019503 80.0488281,65.0761719 L80.0488281,65.390625 C79.7298161,65.7552102 79.5201828,66.233721 79.4199219,66.8261719 C78.8821588,66.8261719 78.6132812,66.8808588 78.6132812,66.9902344 C77.7656208,66.6712224 77.2369802,66.4069021 77.0273438,66.1972656 C76.9453121,66.753258 76.6764346,67.2317688 76.2207031,67.6328125 C76.0110667,68.3164097 75.90625,68.7949205 75.90625,69.0683594 C75.90625,69.5149762 76.1204406,70.0983037 76.5488281,70.8183594 L76.6992188,71.9394531 C76.4986969,72.039714 76.3391933,72.0898438 76.2207031,72.0898438 C76.2207031,72.4817728 76.4348937,72.9602836 76.8632812,73.5253906 L76.8632812,73.8535156 C76.8632812,73.9537765 76.8085943,74.0039062 76.6992188,74.0039062 L77.0273438,74.6464844 C76.9453121,75.3938839 76.6263049,75.7675781 76.0703125,75.7675781 C75.8789053,75.6582026 75.6647147,75.6035156 75.4277344,75.6035156 C74.4706983,75.9225276 73.6731803,76.0820312 73.0351562,76.0820312 L71.9140625,74.4824219 C71.9869795,73.7441369 72.0963534,73.375 72.2421875,73.375 C72.0781242,72.9466124 71.9186206,72.7324219 71.7636719,72.7324219 L72.078125,70.3398438 L71.9140625,70.3398438 C72.1328136,69.9934879 72.2421875,69.7291676 72.2421875,69.546875 C72.0963534,69.5377604 71.8274759,68.790372 71.4355469,67.3046875 C71.7910174,66.8398414 72.1100246,65.9921937 72.3925781,64.7617188 L72.5566406,64.7617188 L72.3925781,63.9550781 C72.3925781,63.8548172 72.4472651,63.8046875 72.5566406,63.8046875 L72.3925781,62.9980469 L72.3925781,62.3691406 C71.2076764,62.7884136 70.4648453,62.9980469 70.1640625,62.9980469 L70,62.9980469 C69.8450513,62.9980469 69.6855477,62.8385433 69.5214844,62.5195312 L69.5214844,62.2050781 C69.5214844,61.9225246 70.3190024,61.4987007 71.9140625,60.9335938 L72.2421875,61.0839844 L72.3925781,61.0839844 L72.3925781,60.9335938 C72.0006491,60.5416647 71.3125049,60.1679705 70.328125,59.8125 C70.2187495,59.6210928 70.1640625,59.4069022 70.1640625,59.1699219 C70.6562525,58.3222614 70.9752597,57.8984375 71.1210938,57.8984375 Z M95.8945312,50.8710938 L96.0449219,50.8710938 C96.0449219,52.0468809 96.3639291,52.8443989 97.0019531,53.2636719 C97.1113287,53.4550791 97.1660156,53.6692696 97.1660156,53.90625 L96.2089844,55.0273438 L96.3730469,55.8203125 C94.5683504,57.8437601 93.1829475,59.119789 92.2167969,59.6484375 L92.0664062,59.6484375 C91.8476552,59.6484375 91.7382812,59.4889339 91.7382812,59.1699219 L91.9023438,58.3769531 L91.7382812,57.4199219 C91.9570323,57.4199219 92.0664062,57.3151052 92.0664062,57.1054688 L92.0664062,56.2988281 C92.0664062,56.1985672 92.0117193,56.1484375 91.9023438,56.1484375 C92.0117193,55.2643185 92.2760396,54.3574265 92.6953125,53.4277344 L92.5449219,52.6347656 C92.5449219,51.8873661 93.0735624,51.5136719 94.1308594,51.5136719 C94.1308594,51.3040354 94.7187441,51.0898448 95.8945312,50.8710938 Z M85.5175781,51.828125 C86.1920607,52.4570344 86.6204418,52.9902322 86.8027344,53.4277344 C86.8027344,53.6009123 86.3743532,54.0794232 85.5175781,54.8632812 C86.037112,55.2187518 86.4108062,55.8066365 86.6386719,56.6269531 C86.8756522,56.6269531 87.0898428,56.5722662 87.28125,56.4628906 C88.1927129,56.4628906 88.7213534,57.155592 88.8671875,58.5410156 C89.1223971,58.5410156 89.4414043,59.1790301 89.8242188,60.4550781 C89.9791674,60.4550781 90.1386711,60.6145817 90.3027344,60.9335938 L90.3027344,62.3691406 C90.8404975,62.3691406 91.109375,62.6881479 91.109375,63.3261719 L91.4238281,63.4765625 L91.7382812,63.4765625 L91.9023438,62.6835938 L91.5878906,62.0410156 C91.5878906,60.9199163 92.4355384,59.8580779 94.1308594,58.8554688 C94.2402349,58.5364567 94.5592421,58.3769531 95.0878906,58.3769531 C95.0878906,58.477214 95.6210884,59.0605415 96.6875,60.1269531 L96.5234375,60.9335938 L96.5234375,61.2480469 L97.0019531,61.890625 L97.0019531,62.5195312 C96.8378898,62.5195312 96.6282565,62.6289052 96.3730469,62.8476562 C96.4733078,63.0481781 96.5234375,63.2076817 96.5234375,63.3261719 C96.5234375,63.5084645 96.4186208,63.8274717 96.2089844,64.2832031 C96.291016,64.7024761 96.3958327,64.9121094 96.5234375,64.9121094 C96.486979,65.2311214 96.2226587,65.6048156 95.7304688,66.0332031 C95.9401052,66.379559 96.0449219,66.6438793 96.0449219,66.8261719 L96.6875,66.6757812 L98.4375,68.1113281 L98.4375,68.2617188 C97.6992151,68.6901063 97.3300781,69.2233041 97.3300781,69.8613281 C96.5826786,69.8613281 96.2089844,70.0208317 96.2089844,70.3398438 C96.2089844,71.2513066 96.1041677,71.9941378 95.8945312,72.5683594 L96.0449219,73.5253906 L96.0449219,73.6894531 C95.8535147,73.9264335 95.6940111,74.4049443 95.5664062,75.125 C95.3932283,75.125 94.9694044,75.5488239 94.2949219,76.3964844 C94.0852854,76.3964844 93.9804688,76.4511713 93.9804688,76.5605469 C92.8137962,76.5605469 91.7474007,76.0273491 90.78125,74.9609375 C90.78125,74.3229135 90.5716167,74.0039062 90.1523438,74.0039062 L90.1523438,73.375 C91.2096407,72.2994738 91.7382812,71.6067724 91.7382812,71.296875 L91.4238281,71.296875 C91.1048161,71.296875 90.4668017,71.4563786 89.5097656,71.7753906 C88.8717416,70.8548131 88.5527344,70.2714856 88.5527344,70.0253906 L88.7167969,69.21875 C88.3613263,69.21875 88.1471358,68.8997428 88.0742188,68.2617188 C87.9192701,68.2617188 87.6549498,67.6237043 87.28125,66.3476562 C87.0624989,66.3476562 86.953125,66.028649 86.953125,65.390625 L86.4746094,65.390625 C86.5839849,66.4570366 86.6386719,67.2545546 86.6386719,67.7832031 L86.6386719,68.1113281 L86.1601562,68.9042969 L86.8027344,69.8613281 C86.5839833,70.207684 86.4746094,70.5266912 86.4746094,70.8183594 C86.7936214,70.9277349 86.953125,71.2467421 86.953125,71.7753906 C86.8072909,71.7753906 86.6477873,71.9348942 86.4746094,72.2539062 C86.7936214,72.9557327 86.953125,73.4342435 86.953125,73.6894531 L85.8457031,74.6464844 L85.9960938,75.4394531 L85.9960938,75.6035156 C85.2578088,76.5605517 84.8339849,77.0390625 84.7246094,77.0390625 C84.0683561,77.0390625 83.5351583,76.6653683 83.125,75.9179688 C82.3867151,75.9179688 82.0175781,75.4394579 82.0175781,74.4824219 C82.0175781,74.3183586 82.2272114,74.1087252 82.6464844,73.8535156 C82.6464844,73.7441401 82.3821641,72.9967517 81.8535156,71.6113281 C81.9355473,70.7910115 82.1497379,70.207684 82.4960938,69.8613281 L82.4960938,69.546875 C82.0403623,69.546875 81.7714848,69.0136772 81.6894531,67.9472656 C81.3704411,67.9472656 81.2109375,67.842449 81.2109375,67.6328125 L81.2109375,67.3046875 C81.5299495,67.0130194 81.7441401,66.3750049 81.8535156,65.390625 C81.9628912,65.390625 82.0175781,65.3404953 82.0175781,65.2402344 L82.0175781,65.0761719 L81.6894531,63.640625 L81.8535156,62.5195312 C81.7441401,62.3190094 81.6894531,62.1595058 81.6894531,62.0410156 L81.8535156,61.7265625 C81.8535156,60.878902 81.6393251,60.4550781 81.2109375,60.4550781 L81.2109375,59.6484375 L80.7324219,59.0195312 L80.7324219,58.6914062 C81.4798214,58.1718724 81.8535156,57.3242246 81.8535156,56.1484375 L82.0175781,56.1484375 L81.8535156,55.8203125 L81.8535156,55.65625 C81.8535156,55.4192696 81.9082026,55.2096363 82.0175781,55.0273438 C81.9082026,54.8177073 81.8535156,54.6582037 81.8535156,54.5488281 C81.8535156,54.4485672 82.0677062,54.12956 82.4960938,53.5917969 C82.3867182,53.3821604 82.3320312,53.2226568 82.3320312,53.1132812 L82.8105469,52.4707031 L83.125,52.6347656 C83.4257828,52.6347656 84.2233008,52.3658881 85.5175781,51.828125 Z M107.105469,50.3925781 L107.583984,50.3925781 C107.793621,50.4290366 107.898438,50.5384105 107.898438,50.7207031 L109.019531,50.5566406 L109.333984,50.5566406 C110.400396,50.6113284 110.933594,50.8756487 110.933594,51.3496094 L111.726562,51.1992188 L111.890625,51.1992188 C112.01823,51.1992188 112.227863,51.6230426 112.519531,52.4707031 C112.67448,52.4707031 112.833984,52.6302067 112.998047,52.9492188 C112.469398,53.7239622 112.205078,54.3619767 112.205078,54.8632812 C111.220698,55.2916688 110.637371,55.5058594 110.455078,55.5058594 C110.190754,55.2871083 109.976563,55.1777344 109.8125,55.1777344 C109.466144,55.3964855 109.147137,55.5058594 108.855469,55.5058594 C108.673176,55.5058594 108.408856,55.3964855 108.0625,55.1777344 C107.871093,55.2871099 107.656902,55.3417969 107.419922,55.3417969 L107.105469,55.1777344 C106.749998,55.3964855 106.430991,55.5058594 106.148438,55.5058594 L105.341797,55.3417969 L105.027344,55.8203125 C105.027344,56.0572929 105.082031,56.2714834 105.191406,56.4628906 L105.027344,56.7773438 C105.136719,57.5065141 105.191406,58.0943988 105.191406,58.5410156 L104.384766,59.4980469 L104.384766,59.9765625 C105.02279,60.2408867 105.341797,60.6647106 105.341797,61.2480469 L106.462891,61.2480469 L106.462891,61.5625 C106.936851,61.5533854 107.415362,61.3437521 107.898438,60.9335938 L108.0625,60.9335938 L108.691406,61.4121094 C108.691406,61.2571607 108.85091,61.0976571 109.169922,60.9335938 L109.498047,60.9335938 C109.753256,61.1432302 109.96289,61.2480469 110.126953,61.2480469 L111.248047,61.0839844 C111.248047,61.2389331 111.40755,61.3984367 111.726562,61.5625 C112.118492,61.243488 112.492186,61.0839844 112.847656,61.0839844 C113.430993,61.0839844 113.800129,61.5123655 113.955078,62.3691406 C114.492841,62.4420577 114.761719,62.6015613 114.761719,62.8476562 C114.761719,63.5585973 114.442712,64.1419248 113.804688,64.5976562 L113.955078,65.390625 L113.476562,65.71875 L112.998047,65.71875 L112.205078,65.5546875 C112.205078,65.764324 112.100261,65.8691406 111.890625,65.8691406 L110.455078,65.71875 L109.498047,65.8691406 C109.498047,65.787109 109.338543,65.6276054 109.019531,65.390625 C108.727863,65.6093761 108.035162,65.7688797 106.941406,65.8691406 C106.73177,65.7688797 106.572266,65.71875 106.462891,65.71875 C105.715491,65.71875 105.341797,66.4068942 105.341797,67.7832031 C105.560548,67.8196616 105.669922,67.9290355 105.669922,68.1113281 L105.669922,68.9042969 L106.777344,68.7402344 C107.634119,70.0071678 108.0625,70.8046859 108.0625,71.1328125 C107.114579,71.7708365 106.476564,72.0898438 106.148438,72.0898438 C106.148438,72.4726582 106.093751,72.951169 105.984375,73.5253906 C106.093751,73.7350271 106.148438,73.8945307 106.148438,74.0039062 C105.929686,74.0403648 105.820312,74.1497387 105.820312,74.3320312 L106.148438,74.8105469 C105.920572,75.6582074 105.442061,76.0820312 104.712891,76.0820312 C104.521483,75.9726557 104.307293,75.9179688 104.070312,75.9179688 C103.541664,76.5559928 103.008466,76.875 102.470703,76.875 C102.206379,76.875 101.887372,76.3964892 101.513672,75.4394531 C101.19466,75.3391922 101.035156,75.020185 101.035156,74.4824219 L101.035156,74.0039062 L101.363281,73.5253906 L101.363281,73.2109375 C101.363281,72.9739571 100.989587,72.7597666 100.242188,72.5683594 C100.242188,72.2493474 100.082684,72.0898438 99.7636719,72.0898438 L99.7636719,71.6113281 C100.611332,70.681636 101.035156,70.0983085 101.035156,69.8613281 C100.934895,69.6516917 100.884766,69.492188 100.884766,69.3828125 L100.720703,69.3828125 C100.347003,69.8112001 99.9733092,70.0253906 99.5996094,70.0253906 C99.2805974,69.6334616 99.1210938,69.2597674 99.1210938,68.9042969 C99.6953154,67.5188733 100.228513,66.8261719 100.720703,66.8261719 C100.720703,66.233721 101.199214,65.7050804 102.15625,65.2402344 L101.992188,64.4335938 L102.320312,63.8046875 C100.825513,63.2669244 100.078125,62.6289099 100.078125,61.890625 C100.397137,61.0976523 100.556641,60.4049509 100.556641,59.8125 C100.45638,59.493488 100.351563,59.3339844 100.242188,59.3339844 C100.451824,58.9876285 100.556641,58.6686213 100.556641,58.3769531 L100.078125,57.5839844 L100.242188,56.9414062 C100.132812,56.749999 100.078125,56.5358085 100.078125,56.2988281 C100.296876,56.2988281 100.40625,56.1940115 100.40625,55.984375 L100.40625,55.1777344 L100.242188,54.2207031 C100.524741,52.9446551 101.003252,52.3066406 101.677734,52.3066406 C101.9056,51.4589801 102.438798,51.0351562 103.277344,51.0351562 L105.341797,50.5566406 L105.505859,50.5566406 C105.74284,50.5566406 105.95703,50.6113276 106.148438,50.7207031 C106.494793,50.501952 106.813801,50.3925781 107.105469,50.3925781 Z M109.498047,56.9414062 C110.983731,57.807296 111.726562,58.3404938 111.726562,58.5410156 L111.726562,58.8554688 C111.298175,58.8554688 111.033855,59.174476 110.933594,59.8125 L110.291016,59.8125 C109.844399,59.2565076 109.206384,58.9375004 108.376953,58.8554688 L108.376953,58.5410156 C108.887372,57.5839796 109.261067,57.1054688 109.498047,57.1054688 L109.498047,56.9414062 Z M128.679688,51.3496094 C128.679688,51.8873725 128.944008,52.15625 129.472656,52.15625 C129.63672,52.15625 129.85091,52.3658833 130.115234,52.7851562 L130.115234,52.9492188 C129.814452,53.2408869 129.600261,53.7740847 129.472656,54.5488281 C129.26302,54.5488281 128.9987,54.8131484 128.679688,55.3417969 L127.394531,55.3417969 C127.184895,55.3417969 127.080078,55.1822933 127.080078,54.8632812 L126.916016,54.8632812 C126.45117,55.410159 125.922529,55.7838532 125.330078,55.984375 L123.894531,54.8632812 C124.30469,54.1796841 124.819658,53.104174 125.439453,51.6367188 L126.943359,50.4335938 C128.100917,50.6432302 128.679688,50.9485657 128.679688,51.3496094 Z M123.894531,54.2207031 L122.773438,55.0273438 L122.609375,55.0273438 L121.816406,54.8632812 L121.173828,56.6269531 C121.392579,57.0462261 121.501953,57.415363 121.501953,57.734375 C121.100909,58.691411 120.832032,59.1699219 120.695312,59.1699219 C121.36068,60.345709 121.789062,60.9335938 121.980469,60.9335938 C122.299481,60.9335938 122.458984,61.252601 122.458984,61.890625 L122.609375,61.890625 L122.9375,61.7265625 L122.773438,61.4121094 L122.773438,61.0839844 C122.809896,60.8743479 122.914713,60.7695312 123.087891,60.7695312 C123.689456,61.1979188 124.06315,61.4121094 124.208984,61.4121094 C124.208984,60.5097611 125.006502,59.8717467 126.601562,59.4980469 L126.765625,59.4980469 C126.920574,59.4980469 127.080077,59.7076802 127.244141,60.1269531 C127.134765,60.3183603 127.080078,60.5325509 127.080078,60.7695312 L127.558594,61.0839844 L128.515625,60.9335938 L129.158203,62.0410156 L128.994141,63.1621094 C129.203777,64.0097699 129.627601,64.4335938 130.265625,64.4335938 L130.265625,64.9121094 L128.830078,66.5117188 L128.679688,66.5117188 C128.324217,65.8736947 127.526699,65.5546875 126.287109,65.5546875 C126.077473,65.664063 125.917969,65.71875 125.808594,65.71875 L125.480469,65.5546875 L124.6875,65.71875 C124.477864,65.6093745 124.31836,65.5546875 124.208984,65.5546875 C123.999348,65.664063 123.839844,65.71875 123.730469,65.71875 L123.416016,65.5546875 L122.458984,65.8691406 C122.267577,65.7688797 122.053387,65.71875 121.816406,65.71875 L121.816406,68.2617188 L121.980469,69.21875 C121.871093,69.4010426 121.816406,69.6699201 121.816406,70.0253906 L121.980469,70.0253906 L121.816406,70.3398438 L121.816406,70.6542969 L121.980469,71.7753906 C121.871093,71.7753906 121.816406,71.8300776 121.816406,71.9394531 L122.130859,71.9394531 L122.773438,71.1328125 C123.119793,71.3515636 123.384114,71.4609375 123.566406,71.4609375 C123.921877,71.2421864 124.240884,71.1328125 124.523438,71.1328125 L125.330078,71.7753906 L126.287109,71.7753906 C126.38737,71.7753906 126.4375,71.7207037 126.4375,71.6113281 C128.03256,72.0397157 128.830078,72.4134099 128.830078,72.7324219 C128.729817,72.9420583 128.679688,73.101562 128.679688,73.2109375 C129.162763,73.420574 129.427083,73.6347645 129.472656,73.8535156 L129.472656,74.3320312 C128.916664,74.7239603 128.597657,75.2526008 128.515625,75.9179688 C128.123696,75.9179688 127.804689,76.1321593 127.558594,76.5605469 C127.348957,76.5605469 127.244141,76.6152338 127.244141,76.7246094 C127.134765,76.7246094 127.080078,76.6699224 127.080078,76.5605469 L125.958984,76.7246094 L125.330078,76.5605469 L125.001953,76.7246094 L124.208984,76.5605469 C123.999348,76.6699224 123.839844,76.7246094 123.730469,76.7246094 L123.416016,76.2460938 C122.486323,76.6653667 121.953126,76.875 121.816406,76.875 C121.707031,76.875 121.547527,76.8248703 121.337891,76.7246094 C120.699867,76.7975264 120.380859,76.9023431 120.380859,77.0390625 L120.066406,76.875 L118.630859,76.875 L118.302734,75.9179688 L117.988281,75.9179688 C117.140621,75.9179688 116.716797,75.5989615 116.716797,74.9609375 L116.716797,74.0039062 C116.078773,74.0039062 115.759766,73.7942729 115.759766,73.375 C115.759766,73.2018221 115.650392,72.9876315 115.431641,72.7324219 C115.431641,71.9850223 115.805335,71.6113281 116.552734,71.6113281 C117.136071,71.1282528 117.455078,70.5996122 117.509766,70.0253906 C117.719402,70.0253906 117.824219,69.9160167 117.824219,69.6972656 L117.824219,69.3828125 C117.824219,69.173176 117.136075,68.7493521 115.759766,68.1113281 L115.910156,67.3046875 C115.809895,66.5481733 115.759766,66.1243494 115.759766,66.0332031 C116.279299,66.0332031 116.648436,65.6595089 116.867188,64.9121094 C116.867188,63.8730417 116.443364,63.0253939 115.595703,62.3691406 L115.595703,62.2050781 C115.869142,61.9225246 116.188149,60.9655029 116.552734,59.3339844 L116.388672,58.3769531 C116.498047,58.0579411 116.607421,57.8984375 116.716797,57.8984375 L116.552734,57.5839844 C116.552734,57.3378894 116.607421,57.1236988 116.716797,56.9414062 L116.388672,56.2988281 L116.867188,55.1777344 L116.716797,54.2207031 C116.716797,54.0748691 116.8763,53.9153654 117.195312,53.7421875 L117.03125,52.9492188 C117.03125,52.5481751 117.350257,52.1744809 117.988281,51.828125 C117.988281,50.770828 119.583317,50.2421875 122.773438,50.2421875 L123.087891,50.2421875 L123.566406,50.5566406 C123.566406,50.2832018 123.766925,50.1282554 124.167969,50.0917969 L125.029297,51.4179688 C124.755858,51.9921904 124.377607,52.9264258 123.894531,54.2207031 Z M137.8125,49.7636719 C138.022136,49.8639328 138.18164,49.9140625 138.291016,49.9140625 C138.373047,49.9140625 138.692055,49.8639328 139.248047,49.7636719 L139.890625,50.078125 L140.205078,49.9140625 C140.76107,50.023438 141.080078,50.078125 141.162109,50.078125 L141.804688,49.9140625 C142.1237,49.9140625 142.283203,50.0735661 142.283203,50.3925781 L142.597656,50.3925781 C143.126305,50.1555978 143.390625,49.9960942 143.390625,49.9140625 C144.730475,49.9140625 145.742184,50.6614509 146.425781,52.15625 C146.589845,52.15625 146.804035,52.3658833 147.068359,52.7851562 C146.849608,54.608082 146.740234,55.7291646 146.740234,56.1484375 L146.904297,56.7773438 C146.904297,56.9505217 146.639977,57.2193992 146.111328,57.5839844 C146.211589,58.3404986 146.261719,58.7643225 146.261719,58.8554688 L145.783203,59.1699219 C145.692057,59.1699219 145.268233,59.0651052 144.511719,58.8554688 L144.347656,58.8554688 L143.869141,59.1699219 L143.554688,59.1699219 C142.725256,59.1699219 141.982425,58.3724038 141.326172,56.7773438 L141.326172,56.6269531 L141.640625,55.5058594 C141.640625,55.4055985 141.376305,55.0319043 140.847656,54.3847656 L140.041016,54.8632812 L139.890625,54.8632812 L139.412109,54.5488281 C138.774085,54.5488281 138.455078,55.2415295 138.455078,56.6269531 L138.126953,56.7773438 L137.169922,56.7773438 C136.668617,56.5677073 136.190106,55.5559987 135.734375,53.7421875 C135.023434,53.2864561 134.544923,52.6484416 134.298828,51.828125 L134.298828,51.6777344 C135.401698,50.7753861 136.57291,50.1373717 137.8125,49.7636719 Z M138.291016,57.734375 L138.455078,58.0625 L138.455078,58.3769531 C138.236327,59.1334673 138.126953,59.5572912 138.126953,59.6484375 C138.345704,60.3320347 138.455078,60.7604158 138.455078,60.9335938 C138.455078,62.4192783 138.136071,63.7454369 137.498047,64.9121094 L137.498047,65.0761719 L138.455078,66.9902344 L138.126953,67.6328125 L138.291016,67.6328125 C138.291016,67.7330734 138.236329,67.7832031 138.126953,67.7832031 C138.345704,68.5852905 138.455078,69.3326788 138.455078,70.0253906 L137.976562,70.6542969 C138.177084,70.6542969 138.441405,70.9733041 138.769531,71.6113281 L138.933594,71.6113281 C139.507815,71.5110672 139.986326,71.4609375 140.369141,71.4609375 C140.396485,71.670574 140.501301,71.7753906 140.683594,71.7753906 L141.476562,71.7753906 C141.832033,71.7753906 142.205727,71.615887 142.597656,71.296875 L142.119141,70.3398438 L142.119141,69.8613281 C142.155599,69.6516917 142.260416,69.546875 142.433594,69.546875 L142.283203,67.9472656 L142.283203,67.7832031 C142.456381,67.3639302 142.825518,67.1542969 143.390625,67.1542969 L143.390625,66.5117188 C143.390625,65.6640583 143.604816,65.2402344 144.033203,65.2402344 C144.498049,65.2402344 145.24088,65.5592416 146.261719,66.1972656 C146.626304,66.1972656 146.895181,66.5664026 147.068359,67.3046875 L146.904297,68.1113281 C147.113933,68.138672 147.21875,68.2434887 147.21875,68.4257812 C147.21875,68.9817736 147.059246,69.3007808 146.740234,69.3828125 L146.904297,70.3398438 C146.794921,71.2695359 146.740234,71.8027337 146.740234,71.9394531 C146.958985,71.9394531 147.118489,72.363277 147.21875,73.2109375 C147.200521,73.5572934 146.831384,73.9811173 146.111328,74.4824219 C146.111328,75.4394579 145.632817,75.9179688 144.675781,75.9179688 C144.675781,76.1367198 144.516278,76.2460938 144.197266,76.2460938 C143.841795,76.2460938 142.934903,76.2962235 141.476562,76.3964844 L140.683594,76.0820312 C140.446613,76.2369799 139.753912,76.3964836 138.605469,76.5605469 C138.505208,76.5605469 138.455078,76.5058599 138.455078,76.3964844 L137.333984,76.5605469 L137.169922,76.5605469 C137.042317,76.4055982 136.404303,76.2460946 135.255859,76.0820312 C135.255859,75.9726557 135.046226,75.7584651 134.626953,75.4394531 L134.777344,75.125 C133.929683,74.5325491 133.505859,73.9993513 133.505859,73.5253906 L133.505859,72.5683594 C133.505859,72.331379 133.560546,72.1217457 133.669922,71.9394531 C133.560546,71.6204411 133.451172,71.4609375 133.341797,71.4609375 L133.505859,70.3398438 L133.505859,69.3828125 C133.505859,69.173176 133.665363,69.0683594 133.984375,69.0683594 L133.984375,68.7402344 L133.820312,68.4257812 L133.505859,68.5898438 C132.567053,67.9518197 132.033855,67.6328125 131.90625,67.6328125 L132.070312,66.5117188 L132.070312,66.0332031 C132.690107,66.0332031 133.168618,65.8736995 133.505859,65.5546875 L134.298828,65.71875 L134.626953,65.2402344 C133.988929,64.3105422 133.669922,63.6178408 133.669922,63.1621094 L133.505859,63.1621094 C132.867835,63.6269554 132.548828,63.8912757 132.548828,63.9550781 C131.865231,63.5358052 131.441407,63.3261719 131.277344,63.3261719 L130.949219,62.2050781 L131.277344,61.7265625 L131.277344,60.9335938 C131.441407,60.9335938 131.65104,60.8242198 131.90625,60.6054688 L133.027344,60.7695312 L133.820312,59.6484375 L133.669922,58.8554688 L133.820312,58.0625 L134.148438,58.0625 C134.148438,58.4817729 134.572261,58.6914062 135.419922,58.6914062 C135.866539,58.6914062 136.185546,59.0651004 136.376953,59.8125 L136.691406,59.9765625 L136.855469,59.9765625 C137.402346,58.4817634 137.880857,57.734375 138.291016,57.734375 Z M142.433594,60.1269531 C142.570313,60.1269531 142.88932,60.5006473 143.390625,61.2480469 L143.390625,62.2050781 C142.898435,62.7337266 142.155604,62.9980469 141.162109,62.9980469 C140.733722,62.9342445 140.519531,62.5104206 140.519531,61.7265625 L140.519531,60.2910156 L142.433594,60.1269531 Z M151.730469,50.3925781 L152.208984,50.3925781 C153.16602,50.7298194 153.644531,50.9986969 153.644531,51.1992188 L153.644531,51.3496094 L153.972656,51.3496094 C154.13672,51.3496094 154.346353,51.1399761 154.601562,50.7207031 L155.722656,50.8710938 L156.201172,50.8710938 C156.438152,50.8710938 156.652343,50.820964 156.84375,50.7207031 C157.563806,50.8483079 158.042317,51.0078115 158.279297,51.1992188 C158.279297,50.8802067 158.384114,50.7207031 158.59375,50.7207031 L158.908203,50.7207031 L160.507812,50.8710938 C160.507812,50.7252597 160.667316,50.5657561 160.986328,50.3925781 L162.107422,50.3925781 C163.483731,50.8938827 164.171875,51.3222638 164.171875,51.6777344 L164.021484,52.4707031 C164.340496,52.4707031 164.5,53.0540306 164.5,54.2207031 C164.354166,54.2207031 163.766281,54.5943973 162.736328,55.3417969 L162.585938,55.3417969 L161.779297,55.1777344 C161.432941,55.3964855 161.113934,55.5058594 160.822266,55.5058594 L160.193359,55.5058594 C159.947264,55.5058594 159.733074,55.4511724 159.550781,55.3417969 C159.45052,55.3417969 159.131513,55.5559874 158.59375,55.984375 L158.908203,56.7773438 C158.908203,58.0533918 158.324876,58.6914062 157.158203,58.6914062 C157.158203,58.8007818 156.146494,59.119789 154.123047,59.6484375 L153.972656,59.3339844 L153.972656,59.1699219 L154.287109,58.0625 C154.132161,58.0625 153.972657,57.9029964 153.808594,57.5839844 L153.808594,56.6269531 L153.972656,55.8203125 C153.434893,55.5013005 153.006512,55.3417969 152.6875,55.3417969 L151.894531,55.3417969 L150.773438,55.5058594 C150.773438,55.3326814 150.404301,55.1731778 149.666016,55.0273438 C149.474608,55.1276047 149.260418,55.1777344 149.023438,55.1777344 C148.276038,54.7584614 147.902344,54.4941412 147.902344,54.3847656 L147.902344,54.2207031 C148.157553,53.8834619 148.371744,53.459638 148.544922,52.9492188 C148.435546,52.3749971 148.380859,51.8964863 148.380859,51.5136719 L148.380859,51.3496094 C148.380859,51.0761705 148.809241,50.8665372 149.666016,50.7207031 C150.222008,50.820964 150.541015,50.8710938 150.623047,50.8710938 C150.623047,50.5520817 150.992184,50.3925781 151.730469,50.3925781 Z M157.158203,59.4980469 C157.477215,60.0266954 157.636719,60.4505192 157.636719,60.7695312 L156.84375,61.7265625 L156.84375,62.0410156 C156.84375,62.2597667 157.322261,62.4192703 158.279297,62.5195312 C158.279297,62.8476579 158.543617,63.4856723 159.072266,64.4335938 C159.072266,64.8619813 158.807945,65.0761719 158.279297,65.0761719 L158.279297,65.2402344 C158.844404,65.5957049 159.213541,66.2838491 159.386719,67.3046875 C159.596355,67.414063 159.755859,67.46875 159.865234,67.46875 L159.865234,67.9472656 C159.445961,68.3756532 159.126954,68.9589807 158.908203,69.6972656 C158.48893,69.6972656 158.279297,69.8066395 158.279297,70.0253906 L158.279297,70.6542969 C158.525392,70.6542969 158.735025,70.7636708 158.908203,70.9824219 C158.908203,71.0826828 158.69857,71.40169 158.279297,71.9394531 L158.908203,74.3320312 C158.908203,74.4869799 158.643883,74.8059872 158.115234,75.2890625 L158.115234,75.6035156 C158.115234,75.7128912 158.169921,75.7675781 158.279297,75.7675781 C158.279297,75.9134122 157.96029,76.2324194 157.322266,76.7246094 L157.322266,76.875 L156.515625,76.875 L154.929688,75.7675781 C154.929688,75.4850246 154.555993,75.0065138 153.808594,74.3320312 C153.917969,72.7734297 154.077473,71.9212247 154.287109,71.7753906 C153.968097,71.1829397 153.808594,70.7044289 153.808594,70.3398438 L153.494141,70.3398438 C153.412109,70.8684922 153.252605,71.1328125 153.015625,71.1328125 L152.6875,71.1328125 C151.730464,70.9322907 151.251953,70.4036501 151.251953,69.546875 L151.251953,69.3828125 C152.108728,69.1914053 152.537109,68.9772147 152.537109,68.7402344 L152.537109,68.4257812 C151.899085,68.4257812 151.580078,68.3209646 151.580078,68.1113281 L151.580078,67.6328125 L151.894531,66.5117188 L152.058594,66.5117188 C153.097661,66.7213552 153.680989,66.8261719 153.808594,66.8261719 L153.972656,66.8261719 L154.123047,65.71875 C154.123047,65.3723941 153.913414,64.8938833 153.494141,64.2832031 L153.494141,63.9550781 C153.813153,63.5084613 153.972656,62.9798208 153.972656,62.3691406 L153.808594,62.0410156 C153.808594,61.7220036 153.968097,61.5625 154.287109,61.5625 L154.123047,60.7695312 L154.123047,60.4550781 L157.158203,59.4980469 Z M178.417969,51.3496094 C178.417969,51.8873725 178.682289,52.15625 179.210938,52.15625 C179.375001,52.15625 179.589191,52.3658833 179.853516,52.7851562 L179.853516,52.9492188 C179.552733,53.2408869 179.338542,53.7740847 179.210938,54.5488281 C179.001301,54.5488281 178.736981,54.8131484 178.417969,55.3417969 L177.132812,55.3417969 C176.923176,55.3417969 176.818359,55.1822933 176.818359,54.8632812 L176.654297,54.8632812 C176.189451,55.410159 175.66081,55.7838532 175.068359,55.984375 L173.632812,54.8632812 C174.042971,54.1796841 174.55794,53.104174 175.177734,51.6367188 L176.681641,50.4335938 C177.839198,50.6432302 178.417969,50.9485657 178.417969,51.3496094 Z M173.632812,54.2207031 L172.511719,55.0273438 L172.347656,55.0273438 L171.554688,54.8632812 L170.912109,56.6269531 C171.13086,57.0462261 171.240234,57.415363 171.240234,57.734375 C170.839191,58.691411 170.570313,59.1699219 170.433594,59.1699219 C171.098962,60.345709 171.527343,60.9335938 171.71875,60.9335938 C172.037762,60.9335938 172.197266,61.252601 172.197266,61.890625 L172.347656,61.890625 L172.675781,61.7265625 L172.511719,61.4121094 L172.511719,61.0839844 C172.548177,60.8743479 172.652994,60.7695312 172.826172,60.7695312 C173.427737,61.1979188 173.801432,61.4121094 173.947266,61.4121094 C173.947266,60.5097611 174.744784,59.8717467 176.339844,59.4980469 L176.503906,59.4980469 C176.658855,59.4980469 176.818359,59.7076802 176.982422,60.1269531 C176.873046,60.3183603 176.818359,60.5325509 176.818359,60.7695312 L177.296875,61.0839844 L178.253906,60.9335938 L178.896484,62.0410156 L178.732422,63.1621094 C178.942058,64.0097699 179.365882,64.4335938 180.003906,64.4335938 L180.003906,64.9121094 L178.568359,66.5117188 L178.417969,66.5117188 C178.062498,65.8736947 177.26498,65.5546875 176.025391,65.5546875 C175.815754,65.664063 175.656251,65.71875 175.546875,65.71875 L175.21875,65.5546875 L174.425781,65.71875 C174.216145,65.6093745 174.056641,65.5546875 173.947266,65.5546875 C173.737629,65.664063 173.578126,65.71875 173.46875,65.71875 L173.154297,65.5546875 L172.197266,65.8691406 C172.005858,65.7688797 171.791668,65.71875 171.554688,65.71875 L171.554688,68.2617188 L171.71875,69.21875 C171.609374,69.4010426 171.554688,69.6699201 171.554688,70.0253906 L171.71875,70.0253906 L171.554688,70.3398438 L171.554688,70.6542969 L171.71875,71.7753906 C171.609374,71.7753906 171.554688,71.8300776 171.554688,71.9394531 L171.869141,71.9394531 L172.511719,71.1328125 C172.858075,71.3515636 173.122395,71.4609375 173.304688,71.4609375 C173.660158,71.2421864 173.979165,71.1328125 174.261719,71.1328125 L175.068359,71.7753906 L176.025391,71.7753906 C176.125652,71.7753906 176.175781,71.7207037 176.175781,71.6113281 C177.770841,72.0397157 178.568359,72.4134099 178.568359,72.7324219 C178.468098,72.9420583 178.417969,73.101562 178.417969,73.2109375 C178.901044,73.420574 179.165364,73.6347645 179.210938,73.8535156 L179.210938,74.3320312 C178.654945,74.7239603 178.335938,75.2526008 178.253906,75.9179688 C177.861977,75.9179688 177.54297,76.1321593 177.296875,76.5605469 C177.087239,76.5605469 176.982422,76.6152338 176.982422,76.7246094 C176.873046,76.7246094 176.818359,76.6699224 176.818359,76.5605469 L175.697266,76.7246094 L175.068359,76.5605469 L174.740234,76.7246094 L173.947266,76.5605469 C173.737629,76.6699224 173.578126,76.7246094 173.46875,76.7246094 L173.154297,76.2460938 C172.224605,76.6653667 171.691407,76.875 171.554688,76.875 C171.445312,76.875 171.285808,76.8248703 171.076172,76.7246094 C170.438148,76.7975264 170.119141,76.9023431 170.119141,77.0390625 L169.804688,76.875 L168.369141,76.875 L168.041016,75.9179688 L167.726562,75.9179688 C166.878902,75.9179688 166.455078,75.5989615 166.455078,74.9609375 L166.455078,74.0039062 C165.817054,74.0039062 165.498047,73.7942729 165.498047,73.375 C165.498047,73.2018221 165.388673,72.9876315 165.169922,72.7324219 C165.169922,71.9850223 165.543616,71.6113281 166.291016,71.6113281 C166.874352,71.1282528 167.193359,70.5996122 167.248047,70.0253906 C167.457683,70.0253906 167.5625,69.9160167 167.5625,69.6972656 L167.5625,69.3828125 C167.5625,69.173176 166.874356,68.7493521 165.498047,68.1113281 L165.648438,67.3046875 C165.548177,66.5481733 165.498047,66.1243494 165.498047,66.0332031 C166.017581,66.0332031 166.386718,65.6595089 166.605469,64.9121094 C166.605469,63.8730417 166.181645,63.0253939 165.333984,62.3691406 L165.333984,62.2050781 C165.607423,61.9225246 165.92643,60.9655029 166.291016,59.3339844 L166.126953,58.3769531 C166.236329,58.0579411 166.345703,57.8984375 166.455078,57.8984375 L166.291016,57.5839844 C166.291016,57.3378894 166.345703,57.1236988 166.455078,56.9414062 L166.126953,56.2988281 L166.605469,55.1777344 L166.455078,54.2207031 C166.455078,54.0748691 166.614582,53.9153654 166.933594,53.7421875 L166.769531,52.9492188 C166.769531,52.5481751 167.088538,52.1744809 167.726562,51.828125 C167.726562,50.770828 169.321599,50.2421875 172.511719,50.2421875 L172.826172,50.2421875 L173.304688,50.5566406 C173.304688,50.2832018 173.505206,50.1282554 173.90625,50.0917969 L174.767578,51.4179688 C174.494139,51.9921904 174.115888,52.9264258 173.632812,54.2207031 Z M186.757812,49.9140625 L188.34375,50.078125 L188.507812,50.078125 C188.863283,50.078125 189.127603,50.023438 189.300781,49.9140625 C192.071628,50.2513038 193.457031,50.7845016 193.457031,51.5136719 C193.457031,51.6230474 193.507161,51.6777344 193.607422,51.6777344 L194.414062,51.5136719 C194.414062,51.6777352 194.783199,52.210933 195.521484,53.1132812 L195.371094,53.90625 C195.453125,53.90625 195.612629,54.0657536 195.849609,54.3847656 C195.630858,54.7311215 195.521484,54.9954418 195.521484,55.1777344 C195.88607,55.1777344 196.10026,56.24413 196.164062,58.3769531 L196.164062,58.6914062 L194.085938,59.9765625 C192.809889,61.781259 191.802738,62.6835938 191.064453,62.6835938 L191.064453,62.5195312 L191.378906,61.4121094 C191.378906,60.9563779 190.740892,60.6875004 189.464844,60.6054688 C189.145832,60.2591129 188.986328,59.9947926 188.986328,59.8125 C189.624352,58.4270764 189.998046,57.734375 190.107422,57.734375 L190.257812,57.734375 L191.064453,57.8984375 C191.064453,57.4700499 191.114583,57.2558594 191.214844,57.2558594 L191.064453,56.9414062 C191.27409,56.677082 191.378906,56.4628914 191.378906,56.2988281 C191.378906,55.7063772 190.900395,55.2278664 189.943359,54.8632812 L189.943359,54.5488281 C188.348299,54.7949231 187.550781,55.0045564 187.550781,55.1777344 C187.550781,56.0436241 187.231774,56.6861958 186.59375,57.1054688 L187.386719,56.6269531 L187.714844,56.6269531 L187.714844,56.7773438 L187.550781,57.5839844 C187.869793,57.6842453 188.029297,58.0032525 188.029297,58.5410156 L188.029297,58.6914062 C188.029297,58.8007818 187.97461,58.8554688 187.865234,58.8554688 C188.083985,59.2018246 188.193359,59.4661449 188.193359,59.6484375 C188.193359,60.6054735 187.874352,61.0839844 187.236328,61.0839844 C187.336589,61.2936208 187.386719,61.4531245 187.386719,61.5625 L187.550781,61.5625 L187.865234,61.4121094 L188.193359,61.890625 C188.193359,62.1002615 188.083985,62.2050781 187.865234,62.2050781 L188.029297,63.3261719 L188.029297,63.4765625 C188.029297,63.6770843 187.815106,64.2102821 187.386719,65.0761719 C187.815106,65.686852 188.029297,66.0605462 188.029297,66.1972656 C187.919921,67.1360724 187.865234,67.7193999 187.865234,67.9472656 L188.029297,67.9472656 L187.714844,69.546875 C187.395832,69.4374995 187.236328,69.3281255 187.236328,69.21875 L186.908203,69.3828125 C186.169918,69.3828125 185.800781,68.9589886 185.800781,68.1113281 L185.472656,68.1113281 C185.335937,68.1113281 184.697922,68.9589759 183.558594,70.6542969 C183.111977,70.873048 182.264329,71.0325516 181.015625,71.1328125 C180.796874,70.7864566 180.6875,70.4674494 180.6875,70.1757812 L180.6875,69.21875 C180.6875,69.0091135 180.847004,68.9042969 181.166016,68.9042969 C181.731123,69.0136724 182.05013,69.0683594 182.123047,69.0683594 C182.979822,68.8040351 183.408203,68.4850279 183.408203,68.1113281 L182.929688,65.5546875 C183.130209,63.996086 183.339843,63.1985679 183.558594,63.1621094 C183.303384,62.3144489 182.720057,61.890625 181.808594,61.890625 C181.598957,61.890625 181.494141,61.7812511 181.494141,61.5625 L181.494141,61.4121094 C181.813153,61.0384096 182.022786,60.5598988 182.123047,59.9765625 L182.287109,59.9765625 L183.080078,60.4550781 L183.244141,60.4550781 C183.244141,60.3548172 183.348957,59.9264361 183.558594,59.1699219 C183.175779,59.1699219 182.911459,58.1627705 182.765625,56.1484375 C182.975261,55.792967 183.080078,55.4694025 183.080078,55.1777344 C182.870442,55.1777344 182.765625,55.0182308 182.765625,54.6992188 L182.929688,54.3847656 C182.820312,54.1842438 182.765625,54.0247402 182.765625,53.90625 C182.765625,53.587238 182.870442,53.1634141 183.080078,52.6347656 L182.929688,52.6347656 C183.549482,51.4589785 183.918619,50.8710938 184.037109,50.8710938 L184.84375,51.0351562 L184.84375,50.2421875 L185.636719,50.2421875 L186.115234,50.5566406 C186.115234,50.4472651 186.329425,50.2330745 186.757812,49.9140625 Z M193.935547,62.2050781 L194.085938,62.5195312 L194.085938,62.6835938 L193.771484,63.1621094 L193.771484,63.4765625 C194.837896,63.4765625 195.580727,64.2239509 196,65.71875 C195.790364,66.0651059 195.685547,66.3294262 195.685547,66.5117188 C195.685547,66.6119797 195.949867,66.9856738 196.478516,67.6328125 L196.478516,68.1113281 C196.186847,68.1113281 195.86784,69.3326701 195.521484,71.7753906 C195.311848,71.8118491 195.207031,71.9166658 195.207031,72.0898438 C195.416668,72.1263023 195.521484,72.2356762 195.521484,72.4179688 L195.521484,72.5683594 C195.521484,72.7233081 195.361981,72.8828117 195.042969,73.046875 L195.521484,73.8535156 L195.521484,74.1679688 L194.892578,74.8105469 L195.042969,75.6035156 C194.51432,75.7402351 194.25,76.0045553 194.25,76.3964844 L193.292969,76.3964844 C192.90104,76.7154964 192.527346,76.875 192.171875,76.875 L191.857422,76.875 C191.647785,76.875 191.542969,76.7701833 191.542969,76.5605469 L189.150391,76.875 L188.193359,76.7246094 L186.908203,77.203125 C184.675119,77.203125 183.558594,76.9342475 183.558594,76.3964844 L183.558594,76.0820312 L182.601562,76.2460938 C182.401041,76.2460938 181.977217,75.8177126 181.330078,74.9609375 C181.330078,73.3658774 181.594398,72.5683594 182.123047,72.5683594 C182.66081,72.5683594 182.929688,72.2493521 182.929688,71.6113281 L183.244141,71.4609375 L184.201172,72.2539062 L184.365234,72.2539062 C184.47461,72.2539062 184.898434,71.8300824 185.636719,70.9824219 C185.764324,70.9824219 186.347651,70.6634146 187.386719,70.0253906 C187.705731,70.5631537 187.865234,71.0917943 187.865234,71.6113281 C187.628254,71.6113281 187.46875,71.8802056 187.386719,72.4179688 L188.193359,72.4179688 L188.671875,72.0898438 L189.150391,72.0898438 C189.505861,72.0898438 189.874998,72.2493474 190.257812,72.5683594 L190.421875,72.5683594 C190.421875,72.3587229 190.526692,72.2539062 190.736328,72.2539062 C190.736328,72.1445307 190.686198,71.9850271 190.585938,71.7753906 C190.686198,70.6816352 190.845702,69.9889338 191.064453,69.6972656 C190.845702,69.3509097 190.736328,69.0319025 190.736328,68.7402344 L190.736328,68.5898438 C190.918621,68.4075512 191.187498,67.8196664 191.542969,66.8261719 L190.900391,66.0332031 L190.900391,65.390625 L191.064453,64.4335938 C190.955078,64.2330719 190.900391,64.0735683 190.900391,63.9550781 C191.602217,62.7884056 192.613926,62.2050781 193.935547,62.2050781 Z" id="INFECTED" fill="#6D4141"></path>
                <path d="M83.8236679,45.2196267 L83.8236679,45.2196267 L22.5,64 L83.8236679,45.2196267 Z M113.483371,36.1363427 L113.483371,36.1363427 L182.5,15 L113.483371,36.1363427 Z" id="Combined-Shape" stroke="#B5B69C" fill="#F9F9F7" stroke-linecap="square"></path>
                <path d="M92.609375,36.5078125 C92.8281261,36.6328131 93.0390615,36.927081 93.2421875,37.390625 C93.1953123,37.6927098 93.1041673,37.84375 92.96875,37.84375 L93.0546875,38.296875 L93.0546875,38.484375 L92.96875,38.9375 C93.0885423,38.9583334 93.1484375,39.0182287 93.1484375,39.1171875 L93.1484375,39.6640625 C93.1484375,39.8671885 93.1171878,40.0208328 93.0546875,40.125 L93.1484375,40.671875 L93.1484375,41.3984375 C93.1484375,41.5338548 93.1171878,41.6562495 93.0546875,41.765625 C93.0546875,41.822917 93.0859372,41.8515625 93.1484375,41.8515625 C93.1484375,41.9192712 93.1171878,42.0104161 93.0546875,42.125 C93.1015627,42.9166706 93.1640621,43.3125 93.2421875,43.3125 L93.1484375,43.4921875 L93.1484375,43.5859375 C93.1692709,43.7057298 93.2291662,43.765625 93.328125,43.765625 L93.6953125,43.4921875 C94.5078166,43.6171881 94.9947909,43.7708324 95.15625,43.953125 L95.2421875,43.765625 C95.1223952,43.765625 95.0625,43.6744801 95.0625,43.4921875 L95.15625,42.859375 C95.0312494,42.6093738 94.96875,42.4270839 94.96875,42.3125 C95.0312503,42.1927077 95.0625,42.1015628 95.0625,42.0390625 L94.96875,41.8515625 L95.3359375,41.3984375 C95.1380198,40.8515598 94.9869797,40.578125 94.8828125,40.578125 C94.8203122,40.578125 94.7890625,40.6093747 94.7890625,40.671875 C94.7109371,40.671875 94.4973976,40.4895852 94.1484375,40.125 C94.1484375,39.515622 94.3020818,39.2109375 94.609375,39.2109375 C94.8072927,39.2109375 95.018228,39.0286477 95.2421875,38.6640625 L95.15625,38.2109375 L95.15625,37.84375 C95.15625,37.5260401 95.2473949,37.2526053 95.4296875,37.0234375 C95.2838534,37.0234375 95.1927085,36.809898 95.15625,36.3828125 C95.15625,35.8463515 95.2473949,35.4531262 95.4296875,35.203125 C95.2786451,34.593747 95.1562505,34.2890625 95.0625,34.2890625 L94.609375,34.375 C94.4114573,34.2552077 94.257813,34.1953125 94.1484375,34.1953125 C93.5442678,34.3776051 93.2421875,34.5598949 93.2421875,34.7421875 C93.2994795,35.1588562 93.328125,35.4947904 93.328125,35.75 L93.328125,36.0234375 C93.1927077,36.1588548 92.9531267,36.3203116 92.609375,36.5078125 Z M91.1484375,37.2265625 C90.9765616,37.3098963 90.7916677,37.3932287 90.59375,37.4765625 L90.59375,37.390625 C90.59375,37.3229163 90.6249997,37.2317714 90.6875,37.1171875 C90.5052074,36.8307277 90.3828128,36.5260433 90.3203125,36.203125 C89.9557273,36.203125 89.7734375,36.1432298 89.7734375,36.0234375 L89.7734375,35.75 C90.3828155,35.2447891 90.6875,34.6041705 90.6875,33.828125 L90.59375,33.375 C90.6406252,33.1302071 90.7031246,33.0078125 90.78125,33.0078125 C90.6562494,32.8098948 90.59375,32.627605 90.59375,32.4609375 L90.59375,32.375 C90.59375,32.0937486 91.0208291,31.8489594 91.875,31.640625 L92.328125,31.640625 C92.7552105,31.6614584 92.96875,31.7239578 92.96875,31.828125 L93.515625,31.5546875 C93.572917,31.5546875 93.6015625,31.583333 93.6015625,31.640625 L94.515625,31.5546875 L95.3359375,31.5546875 C95.763023,31.5546875 96.096353,31.674478 96.3359375,31.9140625 C96.4557298,31.8567705 96.5468747,31.828125 96.609375,31.828125 C97.5208379,32.0729179 97.9765625,32.5286425 97.9765625,33.1953125 C98.0390628,33.7265652 98.0703125,34.0286455 98.0703125,34.1015625 C97.9661453,34.1640628 97.8437507,34.1953125 97.703125,34.1953125 C97.703125,34.2838546 98.0390591,34.4374989 98.7109375,34.65625 C98.7109375,34.7187503 98.739583,34.8098952 98.796875,34.9296875 C98.796875,34.9817711 98.6770845,35.1640609 98.4375,35.4765625 L98.5234375,36.0234375 C97.9765598,36.0963545 97.703125,36.2473947 97.703125,36.4765625 C97.4635405,36.382812 97.34375,36.2916671 97.34375,36.203125 C97.2239577,36.2656253 97.1328128,36.296875 97.0703125,36.296875 L97.0703125,36.3828125 C97.2005215,36.6484388 97.5338515,37.0130185 98.0703125,37.4765625 L98.0703125,37.5703125 C97.8776032,37.940106 97.6640637,38.1536455 97.4296875,38.2109375 C97.4296875,38.5234391 97.6744767,38.7656241 98.1640625,38.9375 C98.2213545,39.0572923 98.25,39.1484372 98.25,39.2109375 C97.9114566,39.3932301 97.5781266,39.484375 97.25,39.484375 L97.34375,39.9375 C97.2812497,39.9375 97.25,39.9687497 97.25,40.03125 C97.6770855,40.2031259 97.890625,40.3854157 97.890625,40.578125 C97.890625,40.6145835 97.8593753,41.0104129 97.796875,41.765625 C98.2239605,41.9114591 98.4375,42.0937489 98.4375,42.3125 C98.3749997,42.4270839 98.34375,42.5182288 98.34375,42.5859375 C98.4635423,42.6015626 98.5234375,42.6614578 98.5234375,42.765625 L98.5234375,42.859375 C98.3411449,43.2812521 98.0989598,43.4921875 97.796875,43.4921875 L97.703125,43.4921875 C97.7812504,44.065107 97.8437498,44.4296867 97.890625,44.5859375 C97.890625,44.9713561 97.6458358,45.3671855 97.15625,45.7734375 C97.0885413,46.2578149 96.786461,46.5 96.25,46.5 L95.7890625,46.4140625 C95.7109371,46.4140625 95.3776071,46.4739577 94.7890625,46.59375 C94.1796845,46.5312497 93.875,46.4088551 93.875,46.2265625 C93.7552077,46.2265625 93.4531274,46.2890619 92.96875,46.4140625 C92.7239571,46.3828123 92.5104176,46.1692728 92.328125,45.7734375 C91.9114563,46.1380227 91.5781262,46.3203125 91.328125,46.3203125 L91.234375,46.3203125 C90.6874973,45.6015589 90.4140625,44.9036492 90.4140625,44.2265625 C90.3515622,43.7942687 90.3203125,43.5494795 90.3203125,43.4921875 L90.5078125,42.0390625 C90.4192704,42.0390625 90.2369805,41.8567727 89.9609375,41.4921875 L89.9609375,41.21875 C89.9609375,41.0989577 90.1432273,40.6432331 90.5078125,39.8515625 L90.4140625,39.390625 L90.4140625,38.84375 C90.4348959,38.7239577 90.4947912,38.6640625 90.59375,38.6640625 L91.15625,38.2578125 L91.015625,37.6484375 C91.0520835,37.4921867 91.0963539,37.3515631 91.1484375,37.2265625 Z M105.023438,31.28125 C105.455731,31.338542 105.697916,31.3671875 105.75,31.3671875 L106.210938,31.28125 C106.559898,31.4635426 106.802083,31.5546875 106.9375,31.5546875 L106.9375,31.734375 L106.757812,32.0078125 C106.950522,32.0078125 107.192707,32.1901023 107.484375,32.5546875 C107.619792,32.5546875 107.710937,32.8281223 107.757812,33.375 C107.57552,33.8020855 107.453125,34.2291645 107.390625,34.65625 C107.635418,34.7812506 107.757812,34.9322908 107.757812,35.109375 L107.578125,35.4765625 C107.625,35.716147 107.684895,35.8359375 107.757812,35.8359375 L107.664062,36.0234375 L107.664062,36.9296875 L107.484375,37.203125 C107.666668,37.4375012 107.757812,37.619791 107.757812,37.75 L107.664062,38.1171875 C107.726563,38.2369798 107.757812,38.3281247 107.757812,38.390625 L107.578125,38.84375 C107.854168,38.9635423 108.005208,39.0859369 108.03125,39.2109375 L108.03125,39.484375 C107.692707,39.484375 107.388022,39.6979145 107.117188,40.125 L106.9375,40.125 C106.875,40.0052077 106.84375,39.9140628 106.84375,39.8515625 L106.296875,39.8515625 C106.036457,39.8515625 105.794272,39.9114577 105.570312,40.03125 C105.497395,39.9687497 105.315106,39.9375 105.023438,39.9375 C105.26823,40.2864601 105.390625,40.5911445 105.390625,40.8515625 C105.69271,40.8932294 105.84375,40.9843743 105.84375,41.125 L105.84375,41.21875 L104.109375,43.1328125 L103.929688,43.1328125 C103.929688,42.9609366 103.596357,42.5651073 102.929688,41.9453125 L102.835938,41.9453125 C102.835938,42.3098977 102.622398,42.4921875 102.195312,42.4921875 L102.929688,42.9453125 C102.929688,43.0078128 102.898438,43.0390625 102.835938,43.0390625 L102.929688,43.6796875 C102.929688,43.8828135 102.898438,44.0338537 102.835938,44.1328125 L102.929688,44.6796875 L102.929688,45.3203125 C102.565102,45.5755221 102.382812,45.7864575 102.382812,45.953125 C102.382812,46.343752 102.291668,46.5572915 102.109375,46.59375 C101.927082,46.59375 101.653648,46.4713554 101.289062,46.2265625 L100.828125,46.4140625 L100.46875,46.140625 C100.588542,45.8906238 100.648438,45.7083339 100.648438,45.59375 C100.398436,45.5104162 100.216146,45.356772 100.101562,45.1328125 C100.101562,44.9505199 100.132812,44.859375 100.195312,44.859375 L100.101562,44.40625 L100.101562,44.2265625 C100.101562,44.059895 100.161458,43.8776052 100.28125,43.6796875 C100.223958,43.6796875 100.195312,43.6484378 100.195312,43.5859375 L100.007812,43.6796875 L99.828125,43.6796875 C99.7916665,43.6796875 99.578127,43.4973977 99.1875,43.1328125 C99.2500003,42.5859348 99.5234351,42.3125 100.007812,42.3125 C100.007812,42.2499997 100.039062,42.21875 100.101562,42.21875 L99.921875,41.3984375 C99.921875,41.0963527 100.072915,40.9453125 100.375,40.9453125 C100.4375,40.9453125 100.65104,40.5182334 101.015625,39.6640625 C100.953125,39.5494786 100.921875,39.4583337 100.921875,39.390625 L100.742188,39.390625 C100.471353,39.5729176 100.197918,39.6640625 99.921875,39.6640625 C99.8124995,39.5286452 99.7213545,39.2265648 99.6484375,38.7578125 C99.5078118,38.7578125 99.4166669,38.6041682 99.375,38.296875 C99.4583337,38.296875 99.5494787,38.2057301 99.6484375,38.0234375 L99.6484375,37.9375 C99.4661449,37.7083322 99.3125006,37.4348974 99.1875,37.1171875 C99.3125006,36.7526023 99.4947905,36.5703125 99.734375,36.5703125 L99.734375,35.4765625 C99.734375,35.3359368 99.7057295,35.2135422 99.6484375,35.109375 L99.921875,34.65625 L99.734375,34.375 L99.734375,34.2890625 C99.734375,34.1536452 99.7656247,34.0312505 99.828125,33.921875 C99.7656247,33.8177078 99.734375,33.6953132 99.734375,33.5546875 L99.734375,33.375 C99.7552084,33.2552077 99.8177078,33.1953125 99.921875,33.1953125 C99.7968744,32.9973948 99.734375,32.815105 99.734375,32.6484375 C100.453129,31.7942666 100.999998,31.3671875 101.375,31.3671875 C101.4375,31.3671875 101.46875,31.3984372 101.46875,31.4609375 L102.015625,31.3671875 C102.546878,31.4296878 102.851562,31.4609375 102.929688,31.4609375 L102.929688,31.3671875 C103.148439,31.4921881 103.390624,31.5546875 103.65625,31.5546875 L103.75,31.3671875 L104.65625,31.4609375 L104.75,31.4609375 L105.023438,31.28125 Z M103.65625,34.1953125 L103.203125,34.1015625 C102.874998,34.1640628 102.601564,34.1953125 102.382812,34.1953125 L102.382812,34.2890625 C102.393229,34.5338554 102.453124,34.65625 102.5625,34.65625 L102.46875,34.8359375 L102.65625,35.9296875 C102.567708,35.9296875 102.476563,36.0208324 102.382812,36.203125 C102.466146,36.203125 102.557291,36.2942699 102.65625,36.4765625 L102.65625,37.203125 C102.71875,37.203125 102.809895,37.2343747 102.929688,37.296875 C103.236981,37.1770827 103.479166,37.1171875 103.65625,37.1171875 C103.760417,37.1276042 104.002602,37.2786444 104.382812,37.5703125 C104.382812,37.3932283 104.505207,37.2421881 104.75,37.1171875 L104.65625,36.9296875 C104.65625,36.7473949 104.747395,36.65625 104.929688,36.65625 L104.929688,36.109375 L105.117188,35.8359375 L105.117188,35.75 C105.117188,35.6406245 105.026043,35.3671897 104.84375,34.9296875 C104.963542,34.372393 105.023438,34.0677086 105.023438,34.015625 L104.84375,33.921875 L104.75,33.921875 C104.630208,34.0416673 104.265628,34.1328122 103.65625,34.1953125 Z M106.132812,41.5546875 L106.226562,41.5546875 C106.398438,41.5546875 106.731768,42.101557 107.226562,43.1953125 C107.398438,43.1953125 107.671873,43.499997 108.046875,44.109375 C108.171876,44.1302084 108.234375,44.1901037 108.234375,44.2890625 L108.234375,44.3828125 C108.234375,44.7109391 108.080731,44.9531242 107.773438,45.109375 C107.898438,45.3593762 107.960938,45.5416661 107.960938,45.65625 C107.960938,46.0833355 107.473963,46.296875 106.5,46.296875 L106.5,46.203125 C105.890622,45.8593733 105.585938,45.4947936 105.585938,45.109375 C105.346353,45.109375 105.135418,44.8984396 104.953125,44.4765625 L105.039062,44.2890625 C105.039062,44.2213538 104.828127,44.0104184 104.40625,43.65625 L104.40625,43.5625 C104.510417,43.2552068 105.085932,42.5859427 106.132812,41.5546875 Z" id="OR" fill="#B5B69C"></path>
            </g>
        </g>
    </g>
</svg>